<svg version="1.1" id="Layer_1" xmlns="http://www.w3.org/2000/svg" xmlns:xlink="http://www.w3.org/1999/xlink" x="0px" y="0px"
	 width="1088" height="1088" viewBox="416 0 1088 1088" enable-background="new 0 0 1920 1088" xml:space="preserve">
<path fill="#349CCA" opacity="1.000000" stroke="none" 
	d="
M1399.881836,658.995972 
	C1399.939819,673.988403 1400.034546,688.980713 1400.048462,703.973206 
	C1400.076294,733.967041 1400.265747,763.962585 1400.013550,793.954285 
	C1399.632935,839.236694 1364.503784,878.505432 1319.031494,883.792358 
	C1316.101807,883.389404 1313.964600,883.029907 1311.826416,883.024658 
	C1293.041992,882.978699 1274.257324,883.013428 1255.472900,882.966370 
	C1253.630249,882.961731 1251.788696,882.568359 1249.264282,882.276489 
	C1250.531494,880.404114 1251.219971,879.306580 1251.987061,878.267151 
	C1255.440918,873.587219 1257.197754,867.177246 1264.470947,866.350525 
	C1265.226685,866.264587 1266.320801,864.263855 1266.237183,863.234436 
	C1266.170532,862.413879 1264.619019,861.597961 1263.599731,860.994690 
	C1261.487549,859.744690 1259.290771,858.637634 1256.512329,857.139221 
	C1258.621826,855.216125 1259.817993,854.125549 1261.443115,853.028870 
	C1276.313477,853.009827 1290.755249,853.030518 1305.196045,852.936462 
	C1306.796875,852.926025 1308.393555,852.260254 1310.388916,851.792236 
	C1343.946533,850.405762 1368.245728,822.327698 1366.900757,789.875916 
	C1366.356445,776.744202 1366.772461,763.571411 1366.802124,750.417419 
	C1366.860474,724.613770 1366.954468,698.810181 1367.400879,673.029907 
	C1370.134155,675.062439 1372.500000,677.071594 1375.429688,679.559692 
	C1379.616699,673.065979 1386.807129,668.207458 1387.409546,659.119995 
	C1387.641724,655.614502 1389.416626,655.086670 1392.505859,656.603271 
	C1394.802612,657.730713 1397.411743,658.221558 1399.881836,658.995972 
M1385.499878,673.541199 
	C1385.340942,673.743347 1385.182007,673.945435 1385.023071,674.147583 
	C1385.276367,674.225952 1385.529785,674.304382 1385.782959,674.382751 
	C1385.784180,674.130432 1385.785400,673.878174 1385.499878,673.541199 
z"/>
<path fill="#3AA9C2" opacity="1.000000" stroke="none" 
	d="
M1399.882690,372.999756 
	C1399.942993,383.800354 1400.052368,394.600952 1400.055054,405.401550 
	C1400.065063,447.291412 1400.041138,489.181244 1399.618530,531.489868 
	C1392.667603,528.983582 1392.446167,529.193237 1390.813354,536.622131 
	C1390.324707,538.845276 1388.952026,540.859375 1388.170898,543.036194 
	C1386.866211,546.672241 1385.728760,550.367920 1384.484863,554.026245 
	C1384.086792,555.196838 1383.873535,556.638489 1383.060913,557.422058 
	C1380.295166,560.088745 1377.487549,562.793579 1374.327026,564.941101 
	C1372.141602,566.426147 1369.347656,567.015930 1366.655029,567.677002 
	C1364.170288,555.027710 1356.925171,547.433289 1344.638428,544.534729 
	C1344.400757,544.329224 1344.224365,544.341614 1343.579102,544.500122 
	C1337.634033,544.441284 1332.161133,544.335754 1326.687988,544.312866 
	C1304.795288,544.221252 1282.902466,544.155273 1261.009888,543.668945 
	C1260.130371,538.548828 1263.723511,536.462830 1266.548096,534.013977 
	C1272.480713,528.870422 1277.829834,523.629578 1271.086548,514.498108 
	C1274.021851,514.283325 1275.918335,514.027527 1277.815186,514.024048 
	C1295.605835,513.991272 1313.396484,514.037231 1331.186768,513.955505 
	C1333.460815,513.945068 1335.732300,513.333984 1338.374023,512.915771 
	C1339.493774,512.886902 1340.244385,512.943359 1341.118652,513.051697 
	C1341.242188,513.103577 1341.636841,513.116333 1341.636841,513.116333 
	C1341.636841,513.116333 1342.007935,512.971863 1342.366211,512.839294 
	C1355.930664,510.684418 1363.500244,502.710632 1366.727295,489.940369 
	C1366.954834,489.547760 1366.958252,489.267914 1366.777710,488.518005 
	C1366.828857,462.037445 1366.928833,436.022369 1367.404053,410.024048 
	C1370.001831,411.361237 1372.224487,412.681610 1374.350708,413.944702 
	C1375.607788,411.461853 1377.253052,408.447998 1378.651978,405.323669 
	C1379.152588,404.205353 1379.570068,402.596680 1379.135864,401.598816 
	C1377.892822,398.741974 1379.258301,397.544128 1381.340698,395.918427 
	C1382.958740,394.655212 1384.248047,392.516571 1384.864258,390.514832 
	C1386.307617,385.826172 1386.718140,380.748840 1388.661621,376.317841 
	C1389.500000,374.406433 1393.004883,373.442535 1395.481445,372.564423 
	C1396.739014,372.118530 1398.402588,372.818024 1399.882690,372.999756 
z"/>
<path fill="#3FB4B4" opacity="1.000000" stroke="none" 
	d="
M927.011841,884.633667 
	C925.935486,884.691406 924.859070,884.749146 923.139404,884.453674 
	C920.586121,883.733398 918.679443,883.069702 916.765747,883.048889 
	C906.778931,882.940002 896.790222,883.026062 886.802612,882.960327 
	C885.185913,882.949707 883.571960,882.518005 881.874207,882.268860 
	C882.178894,881.269104 882.183838,881.013367 882.279419,880.973145 
	C889.876221,877.780334 889.292114,869.717468 892.390076,863.859375 
	C892.671021,863.328064 892.195068,862.251892 891.834412,861.550171 
	C890.024170,858.027649 887.788025,855.163391 883.259705,854.957520 
	C881.814697,854.891785 880.421692,853.681885 879.473022,852.987122 
	C887.370483,852.970703 894.802307,853.072937 902.228210,852.907104 
	C905.803894,852.827332 909.368347,852.242371 913.302612,851.795288 
	C933.517700,851.230957 943.077698,841.351013 943.122498,821.252258 
	C943.136536,814.932312 943.123108,808.612366 943.134949,802.292419 
	C943.196838,769.200317 943.262817,736.108154 943.649048,703.099609 
	C944.866760,704.492676 945.671387,705.878540 946.684753,707.089783 
	C947.664673,708.261108 948.859619,709.252563 949.960144,710.323059 
	C950.739380,709.146362 951.644897,708.033386 952.276794,706.782288 
	C955.895203,699.618164 956.179749,691.473267 960.618530,684.173523 
	C964.208374,678.269775 968.590088,676.771851 973.943298,675.456299 
	C974.034729,725.502747 974.021240,775.085449 974.086914,824.668030 
	C974.103210,836.957825 980.085938,845.552185 991.363770,850.130432 
	C992.376709,850.541687 993.240784,851.319580 993.853149,852.066284 
	C990.812622,853.754883 987.956848,855.109436 985.401123,856.893860 
	C979.774414,860.822510 973.893921,864.531921 968.898499,869.172119 
	C965.317078,872.498718 963.002686,877.189331 959.411011,882.280579 
	C962.761841,882.615601 964.662720,882.959534 966.565430,882.970276 
	C976.706604,883.027405 986.849548,882.915527 996.988525,883.076538 
	C998.995178,883.108459 1000.986938,884.078003 1002.985535,884.615112 
	C979.294006,884.674988 955.602539,884.734802 931.284180,884.485474 
	C929.442139,884.328796 928.226990,884.481262 927.011841,884.633667 
z"/>
<path fill="#7DD548" opacity="1.000000" stroke="none" 
	d="
M522.023254,361.369415 
	C522.026062,330.263672 520.996033,299.115295 522.278931,268.062439 
	C524.106079,223.835831 563.672363,185.894684 608.931641,184.131378 
	C620.491577,184.577606 631.236145,184.751068 641.977905,185.033340 
	C644.100098,185.089127 646.326782,185.236313 648.296936,185.931641 
	C650.522217,186.716995 651.432251,188.508194 649.434021,190.542450 
	C646.196960,193.837936 643.161804,197.442322 639.485718,200.166275 
	C635.470276,203.141754 632.597290,206.273972 632.958374,211.568558 
	C633.148438,214.355927 631.850403,215.846130 628.943604,216.118439 
	C627.920471,216.214294 626.974243,217.130310 625.540588,217.746246 
	C621.727722,217.789032 618.367065,217.757431 614.951538,217.601807 
	C614.594788,217.561844 614.292969,217.645905 613.542114,217.804413 
	C586.181335,218.399780 564.716980,233.777008 557.599182,258.872314 
	C555.333130,266.861664 555.699890,275.597748 554.702637,284.371338 
	C554.363037,287.061188 554.072083,289.369324 554.020325,291.682831 
	C553.644287,308.470886 553.527466,325.268921 552.818909,342.042267 
	C552.650696,346.024231 551.271667,350.365143 549.189575,353.770630 
	C544.872742,360.831421 539.756714,367.409149 534.856995,374.103302 
	C533.882935,375.434113 532.406189,376.397003 530.234314,378.372833 
	C528.667419,373.528046 527.718933,369.689240 526.151123,366.122620 
	C525.344604,364.287903 523.434631,362.938263 522.023254,361.369415 
z"/>
<path fill="#64CB73" opacity="1.000000" stroke="none" 
	d="
M522.033936,790.000122 
	C521.964355,775.712219 521.841858,761.424255 521.835571,747.136353 
	C521.820251,712.402405 521.858948,677.668396 522.275513,642.568604 
	C529.429321,646.345581 529.886230,646.013245 534.180542,638.839844 
	C537.070374,634.012573 540.091064,628.992004 544.115295,625.178833 
	C550.286133,619.331665 552.900024,612.534363 553.100708,604.333801 
	C553.136536,602.868713 554.270081,601.430420 554.972046,600.445435 
	C555.060669,627.992859 555.098267,655.074585 555.079163,682.156311 
	C555.065613,701.425415 554.975464,720.694580 554.616943,740.188965 
	C553.873901,742.126770 553.411011,743.833923 552.997131,745.552795 
	C551.609009,751.316284 550.984375,757.399902 548.703796,762.783325 
	C544.127563,773.585388 538.716797,784.039001 533.459595,794.540894 
	C532.820496,795.817688 531.094299,797.040894 529.705078,797.268005 
	C528.869568,797.404541 527.696777,795.578796 526.700623,794.609192 
	C525.134033,793.084167 523.588440,791.537598 522.033936,790.000122 
z"/>
<path fill="#3CAFBD" opacity="1.000000" stroke="none" 
	d="
M1399.959229,372.536560 
	C1398.402588,372.818024 1396.739014,372.118530 1395.481445,372.564423 
	C1393.004883,373.442535 1389.500000,374.406433 1388.661621,376.317841 
	C1386.718140,380.748840 1386.307617,385.826172 1384.864258,390.514832 
	C1384.248047,392.516571 1382.958740,394.655212 1381.340698,395.918427 
	C1379.258301,397.544128 1377.892822,398.741974 1379.135864,401.598816 
	C1379.570068,402.596680 1379.152588,404.205353 1378.651978,405.323669 
	C1377.253052,408.447998 1375.607788,411.461853 1374.350708,413.944702 
	C1372.224487,412.681610 1370.001831,411.361237 1367.324219,409.560425 
	C1366.897827,363.058105 1366.926392,317.036163 1367.333008,271.058777 
	C1372.259888,273.082489 1376.582520,273.629517 1380.482788,269.595886 
	C1387.278320,262.567871 1391.079712,262.087250 1399.484375,266.979065 
	C1399.670288,269.454712 1400.015381,271.930176 1400.017944,274.406006 
	C1400.052124,306.961792 1400.037964,339.517609 1399.959229,372.536560 
z"/>
<path fill="#59C78B" opacity="1.000000" stroke="none" 
	d="
M937.006287,183.861542 
	C944.650269,183.785065 952.294250,183.643906 959.938232,183.642792 
	C1004.008606,183.636322 1048.078979,183.662979 1092.586304,184.039337 
	C1093.008179,184.578583 1092.993042,184.756897 1092.511597,184.938736 
	C1082.010742,184.964798 1071.976074,184.987350 1061.478760,185.002686 
	C1044.711060,184.999405 1028.405640,185.043198 1012.100769,184.971603 
	C1009.063904,184.958267 1006.655029,185.435364 1005.073975,188.461960 
	C1002.483948,193.419922 1000.033508,198.546310 996.722229,203.006302 
	C993.089539,207.899307 992.429199,213.299026 991.722168,219.137024 
	C981.869873,223.059296 976.748718,230.517227 973.697998,240.063934 
	C970.033264,240.733749 969.674561,243.126282 969.176941,245.981476 
	C968.451721,250.142227 967.245056,254.286362 965.687988,258.217529 
	C963.807678,262.964691 961.319458,267.469116 959.143738,272.101807 
	C956.080566,278.624084 953.068176,285.170258 949.997131,291.688812 
	C949.913147,291.867096 949.406250,291.846161 948.552002,292.044647 
	C948.085632,290.782623 947.287354,289.490723 947.159729,288.135620 
	C946.355164,279.593323 945.773071,271.029816 944.943909,262.490173 
	C944.731140,260.298859 943.894348,258.168091 943.264282,255.546997 
	C943.168762,252.435822 942.991760,249.776520 943.165100,247.140244 
	C944.016418,234.191696 938.060242,225.322281 926.928955,219.156128 
	C927.882141,217.869263 928.589966,216.643555 929.647461,216.106293 
	C936.059082,212.848877 937.971558,209.620087 937.802734,202.814606 
	C937.756775,200.959427 938.320618,198.854019 939.267639,197.256577 
	C941.478699,193.527145 944.092224,190.036331 947.566650,184.949997 
	C943.070801,184.949997 940.018494,184.949997 936.974915,184.677826 
	C936.991211,184.224274 936.998779,184.042892 937.006287,183.861542 
z"/>
<path fill="#36A2C8" opacity="1.000000" stroke="none" 
	d="
M1366.825684,568.005737 
	C1369.347656,567.015930 1372.141602,566.426147 1374.327026,564.941101 
	C1377.487549,562.793579 1380.295166,560.088745 1383.060913,557.422058 
	C1383.873535,556.638489 1384.086792,555.196838 1384.484863,554.026245 
	C1385.728760,550.367920 1386.866211,546.672241 1388.170898,543.036194 
	C1388.952026,540.859375 1390.324707,538.845276 1390.813354,536.622131 
	C1392.446167,529.193237 1392.667603,528.983582 1399.541870,531.952820 
	C1399.941284,560.060913 1400.019043,588.124878 1400.064331,616.188782 
	C1400.082642,627.482239 1400.029785,638.775818 1399.589355,650.570984 
	C1397.825195,651.526489 1396.480835,651.980347 1395.136597,652.434204 
	C1395.209961,652.842224 1395.283203,653.250244 1395.356445,653.658325 
	C1396.857544,653.774475 1398.358643,653.890625 1399.859741,654.006836 
	C1399.916504,655.395630 1399.973267,656.784363 1399.956055,658.584595 
	C1397.411743,658.221558 1394.802612,657.730713 1392.505859,656.603271 
	C1389.416626,655.086670 1387.641724,655.614502 1387.409546,659.119995 
	C1386.807129,668.207458 1379.616699,673.065979 1375.429688,679.559692 
	C1372.500000,677.071594 1370.134155,675.062439 1367.321045,672.566406 
	C1366.857788,637.388245 1366.841675,602.696960 1366.825684,568.005737 
z"/>
<path fill="#3FB4B4" opacity="1.000000" stroke="none" 
	d="
M1399.526855,266.573822 
	C1391.079712,262.087250 1387.278320,262.567871 1380.482788,269.595886 
	C1376.582520,273.629517 1372.259888,273.082489 1367.210815,270.690308 
	C1365.378906,259.541809 1362.256226,249.485825 1355.554077,240.779114 
	C1343.295776,224.854431 1326.958984,217.512711 1307.034302,217.241791 
	C1307.659546,210.611801 1308.288940,204.440323 1308.956787,197.891159 
	C1307.897461,197.669662 1306.462036,197.369522 1306.156128,197.305573 
	C1306.337280,194.612259 1307.246094,192.150772 1306.405396,190.710571 
	C1305.425293,189.031586 1303.037476,187.598434 1301.041382,187.222595 
	C1297.991943,186.648453 1294.754761,187.072006 1291.597290,187.072006 
	C1291.605713,186.383987 1291.614136,185.695984 1291.622559,185.007965 
	C1294.328125,185.007965 1297.039917,185.126282 1299.737671,184.981171 
	C1304.167236,184.742920 1308.587524,184.333771 1313.011719,183.996674 
	C1342.520264,185.568665 1365.619019,198.835464 1383.026855,222.432388 
	C1384.601929,224.567352 1385.923096,226.889603 1387.137451,229.502823 
	C1385.911255,230.270889 1384.909668,230.660995 1383.908081,231.051102 
	C1384.094727,231.526505 1384.281250,232.001923 1384.467896,232.477325 
	C1385.692017,231.967438 1386.916016,231.457535 1388.140015,230.947632 
	C1394.890137,241.733780 1398.175903,253.644135 1399.526855,266.573822 
M1386.980835,250.965134 
	C1387.393066,249.805496 1387.805298,248.645874 1388.217529,247.486267 
	C1387.225098,247.224747 1386.232666,246.963226 1385.240234,246.701736 
	C1385.638428,248.030655 1386.036621,249.359573 1386.980835,250.965134 
z"/>
<path fill="#36A2C8" opacity="1.000000" stroke="none" 
	d="
M1261.014160,853.034912 
	C1259.817993,854.125549 1258.621826,855.216125 1256.512329,857.139221 
	C1259.290771,858.637634 1261.487549,859.744690 1263.599731,860.994690 
	C1264.619019,861.597961 1266.170532,862.413879 1266.237183,863.234436 
	C1266.320801,864.263855 1265.226685,866.264587 1264.470947,866.350525 
	C1257.197754,867.177246 1255.440918,873.587219 1251.987061,878.267151 
	C1251.219971,879.306580 1250.531494,880.404114 1249.264282,882.276489 
	C1251.788696,882.568359 1253.630249,882.961731 1255.472900,882.966370 
	C1274.257324,883.013428 1293.041992,882.978699 1311.826416,883.024658 
	C1313.964600,883.029907 1316.101807,883.389404 1318.611816,883.757446 
	C1315.839478,884.213013 1312.695190,884.737671 1309.550049,884.741821 
	C1269.068970,884.795410 1228.588013,884.774841 1187.326416,884.425659 
	C1183.652588,884.264526 1180.759277,884.450806 1177.866089,884.637085 
	C1167.196045,884.682434 1156.526001,884.727722 1145.440552,884.291992 
	C1147.145386,880.377869 1149.217285,876.913147 1151.430054,873.540833 
	C1151.832031,872.928101 1152.774536,872.426819 1153.527710,872.326782 
	C1158.791016,871.627808 1158.412964,868.292847 1157.208374,864.601562 
	C1155.251099,858.604309 1152.239380,856.409424 1145.860596,855.987427 
	C1143.637939,855.840393 1141.436035,855.379150 1139.224731,855.061401 
	C1139.305542,854.385925 1139.386475,853.710388 1139.467285,853.034851 
	C1179.982910,853.034851 1220.498535,853.034851 1261.014160,853.034912 
z"/>
<path fill="#43BBB1" opacity="1.000000" stroke="none" 
	d="
M1312.553955,183.881592 
	C1308.587524,184.333771 1304.167236,184.742920 1299.737671,184.981171 
	C1297.039917,185.126282 1294.328125,185.007965 1291.622559,185.007965 
	C1291.614136,185.695984 1291.605713,186.383987 1291.597290,187.072006 
	C1294.754761,187.072006 1297.991943,186.648453 1301.041382,187.222595 
	C1303.037476,187.598434 1305.425293,189.031586 1306.405396,190.710571 
	C1307.246094,192.150772 1306.337280,194.612259 1306.156128,197.305573 
	C1306.462036,197.369522 1307.897461,197.669662 1308.956787,197.891159 
	C1308.288940,204.440323 1307.659546,210.611801 1306.610352,217.315308 
	C1287.128784,217.794312 1268.067017,217.741257 1248.761963,217.409927 
	C1246.445190,216.755951 1244.374023,216.069916 1242.297974,216.054825 
	C1228.651855,215.955765 1215.004517,216.028732 1201.357910,215.967621 
	C1199.515625,215.959366 1197.675171,215.514420 1194.501709,215.096085 
	C1198.912842,210.607559 1202.025757,206.627228 1205.925903,203.693466 
	C1210.055908,200.586945 1212.661865,195.321594 1211.550293,190.427032 
	C1210.215820,184.550705 1205.913574,184.958710 1201.465698,184.972580 
	C1178.000122,185.045715 1154.534180,185.020798 1130.595459,185.019989 
	C1117.740967,184.985123 1105.359375,184.960175 1092.977783,184.935226 
	C1092.993042,184.756897 1093.008179,184.578583 1093.052002,184.133224 
	C1112.866699,183.784027 1132.652710,183.630310 1152.438843,183.633484 
	C1205.657959,183.642044 1258.877197,183.717575 1312.553955,183.881592 
z"/>
<path fill="#6DCE5F" opacity="1.000000" stroke="none" 
	d="
M522.019226,563.007751 
	C521.953430,536.292175 521.882568,509.576630 521.825195,482.861084 
	C521.809204,475.393005 521.832825,467.924866 522.302124,460.217407 
	C523.852295,463.140900 524.898193,466.318451 526.043945,469.459595 
	C526.525452,470.779785 527.174866,473.060303 527.823669,473.087311 
	C529.214233,473.145203 531.438782,472.386047 531.935669,471.317108 
	C533.924561,467.038391 535.838196,462.620300 536.913330,458.049957 
	C538.039307,453.263580 539.943115,450.233673 545.272095,449.874023 
	C547.005371,449.757019 549.707336,448.660919 550.144592,447.387268 
	C551.830627,442.476440 553.358643,437.370148 553.869812,432.229706 
	C554.668884,424.194611 554.593689,416.072571 554.963501,408.452148 
	C554.992310,440.942749 554.946533,472.968536 554.734985,505.368866 
	C553.687805,516.541504 552.923767,527.351562 551.832153,538.128357 
	C551.596069,540.458984 550.836243,543.496094 549.197754,544.794312 
	C541.861633,550.606873 537.874573,558.876404 532.551270,566.156189 
	C530.215942,569.349854 528.043274,569.735779 525.572876,566.226807 
	C524.675171,564.951782 523.220032,564.069336 522.019226,563.007751 
z"/>
<path fill="#76D451" opacity="1.000000" stroke="none" 
	d="
M554.888855,407.987366 
	C554.593689,416.072571 554.668884,424.194611 553.869812,432.229706 
	C553.358643,437.370148 551.830627,442.476440 550.144592,447.387268 
	C549.707336,448.660919 547.005371,449.757019 545.272095,449.874023 
	C539.943115,450.233673 538.039307,453.263580 536.913330,458.049957 
	C535.838196,462.620300 533.924561,467.038391 531.935669,471.317108 
	C531.438782,472.386047 529.214233,473.145203 527.823669,473.087311 
	C527.174866,473.060303 526.525452,470.779785 526.043945,469.459595 
	C524.898193,466.318451 523.852295,463.140900 522.383179,459.777893 
	C521.958496,432.023010 521.916809,404.468262 521.998901,376.330658 
	C522.179565,375.489746 522.139832,375.245300 522.003479,375.014374 
	C521.957092,370.721375 521.910706,366.428375 521.943848,361.752380 
	C523.434631,362.938263 525.344604,364.287903 526.151123,366.122620 
	C527.718933,369.689240 528.667419,373.528046 530.234314,378.372833 
	C532.406189,376.397003 533.882935,375.434113 534.856995,374.103302 
	C539.756714,367.409149 544.872742,360.831421 549.189575,353.770630 
	C551.271667,350.365143 552.650696,346.024231 552.818909,342.042267 
	C553.527466,325.268921 553.644287,308.470886 554.020325,291.682831 
	C554.072083,289.369324 554.363037,287.061188 554.775269,284.835876 
	C555.025513,289.571808 555.065186,294.222382 555.058594,298.872925 
	C555.007019,335.244415 554.946594,371.615875 554.888855,407.987366 
z"/>
<path fill="#76D451" opacity="1.000000" stroke="none" 
	d="
M625.992859,217.671844 
	C626.974243,217.130310 627.920471,216.214294 628.943604,216.118439 
	C631.850403,215.846130 633.148438,214.355927 632.958374,211.568558 
	C632.597290,206.273972 635.470276,203.141754 639.485718,200.166275 
	C643.161804,197.442322 646.196960,193.837936 649.434021,190.542450 
	C651.432251,188.508194 650.522217,186.716995 648.296936,185.931641 
	C646.326782,185.236313 644.100098,185.089127 641.977905,185.033340 
	C631.236145,184.751068 620.491577,184.577606 609.378296,184.185745 
	C619.139587,183.882431 629.270508,183.658524 639.401611,183.653656 
	C684.619751,183.631912 729.837952,183.672684 775.513550,184.050751 
	C775.970520,184.591293 775.970093,184.771957 775.504517,184.954071 
	C764.413391,184.966644 753.787476,184.955688 743.161865,185.007736 
	C741.058960,185.018036 738.891052,184.678818 738.661072,188.092056 
	C738.309814,193.305649 735.845154,197.098587 730.279907,198.395508 
	C728.988770,198.696396 727.750061,199.952698 726.849548,201.063171 
	C724.054138,204.510468 721.360413,208.046844 718.765625,211.648376 
	C716.426086,214.895615 713.476013,216.177856 709.412170,216.109314 
	C706.278564,216.056458 703.126160,217.121155 699.519836,217.763153 
	C674.702637,217.782181 650.347778,217.727005 625.992859,217.671844 
z"/>
<path fill="#3CAFBD" opacity="1.000000" stroke="none" 
	d="
M1003.399353,884.695312 
	C1000.986938,884.078003 998.995178,883.108459 996.988525,883.076538 
	C986.849548,882.915527 976.706604,883.027405 966.565430,882.970276 
	C964.662720,882.959534 962.761841,882.615601 959.411011,882.280579 
	C963.002686,877.189331 965.317078,872.498718 968.898499,869.172119 
	C973.893921,864.531921 979.774414,860.822510 985.401123,856.893860 
	C987.956848,855.109436 990.812622,853.754883 994.240112,852.079102 
	C995.976440,851.903137 997.004944,851.853455 998.387817,852.015625 
	C1000.869446,852.480652 1002.995422,852.942200 1005.123840,852.953247 
	C1018.447266,853.022278 1031.786499,853.376282 1045.089355,852.851074 
	C1053.333618,852.525574 1060.857910,854.280884 1068.295166,857.365601 
	C1072.072876,858.932434 1074.433716,862.227905 1072.989624,865.575500 
	C1070.293457,871.825134 1069.947632,878.134155 1070.000610,884.650879 
	C1061.635742,884.692993 1053.270996,884.735107 1044.197266,884.427368 
	C1042.578857,883.740479 1041.671265,883.117737 1040.759033,883.110596 
	C1031.003906,883.033630 1021.247253,883.001587 1011.492859,883.117126 
	C1010.325439,883.130981 1009.169189,884.091797 1008.007690,884.613647 
	C1006.609497,884.667603 1005.211365,884.721497 1003.399353,884.695312 
z"/>
<path fill="#3AA9C2" opacity="1.000000" stroke="none" 
	d="
M1070.455322,884.730469 
	C1069.947632,878.134155 1070.293457,871.825134 1072.989624,865.575500 
	C1074.433716,862.227905 1072.072876,858.932434 1068.295166,857.365601 
	C1060.857910,854.280884 1053.333618,852.525574 1045.089355,852.851074 
	C1031.786499,853.376282 1018.447266,853.022278 1005.123840,852.953247 
	C1002.995422,852.942200 1000.869446,852.480652 998.845825,851.928833 
	C1079.669067,851.638672 1160.388794,851.629944 1241.108521,851.666077 
	C1264.069702,851.676331 1287.030884,851.817261 1309.992065,851.898315 
	C1308.393555,852.260254 1306.796875,852.926025 1305.196045,852.936462 
	C1290.755249,853.030518 1276.313477,853.009827 1261.443115,853.028809 
	C1220.498535,853.034851 1179.982910,853.034851 1139.467285,853.034851 
	C1139.386475,853.710388 1139.305542,854.385925 1139.224731,855.061401 
	C1141.436035,855.379150 1143.637939,855.840393 1145.860596,855.987427 
	C1152.239380,856.409424 1155.251099,858.604309 1157.208374,864.601562 
	C1158.412964,868.292847 1158.791016,871.627808 1153.527710,872.326782 
	C1152.774536,872.426819 1151.832031,872.928101 1151.430054,873.540833 
	C1149.217285,876.913147 1147.145386,880.377869 1144.973145,884.209106 
	C1137.906982,884.670959 1130.892822,884.734558 1123.250122,884.475891 
	C1121.084839,884.305237 1119.547974,884.456848 1118.011230,884.608521 
	C1114.308350,884.662354 1110.605469,884.716248 1106.344482,884.518433 
	C1105.191772,884.381714 1104.597168,884.496643 1104.002563,884.611694 
	C1102.931030,884.669006 1101.859375,884.726257 1100.206299,884.463135 
	C1098.083984,884.308655 1096.543335,884.474548 1095.002686,884.640442 
	C1094.248291,884.693359 1093.494019,884.746277 1092.133789,884.453613 
	C1088.352661,884.277405 1085.177368,884.446655 1082.002075,884.615906 
	C1078.304810,884.680603 1074.607422,884.745300 1070.455322,884.730469 
z"/>
<path fill="#59C782" opacity="1.000000" stroke="none" 
	d="
M521.958496,790.461060 
	C523.588440,791.537598 525.134033,793.084167 526.700623,794.609192 
	C527.696777,795.578796 528.869568,797.404541 529.705078,797.268005 
	C531.094299,797.040894 532.820496,795.817688 533.459595,794.540894 
	C538.716797,784.039001 544.127563,773.585388 548.703796,762.783325 
	C550.984375,757.399902 551.609009,751.316284 552.997131,745.552795 
	C553.411011,743.833923 553.873901,742.126770 554.691345,740.656738 
	C555.065918,757.022827 555.336609,773.152283 554.998230,789.268860 
	C554.470154,814.420654 565.119751,833.036804 586.302979,845.640015 
	C577.721924,846.356689 570.754456,848.569336 568.990906,857.975769 
	C568.873352,858.602661 568.411682,859.164429 568.114075,859.758423 
	C566.497009,862.985962 564.314026,864.601318 560.464233,863.142578 
	C559.560364,862.800171 558.109802,863.900635 556.910767,864.337341 
	C533.338257,845.541626 522.019653,820.899353 521.958496,790.461060 
z"/>
<path fill="#46BCA5" opacity="1.000000" stroke="none" 
	d="
M852.987244,884.637573 
	C831.394653,884.695374 809.802124,884.781860 788.209534,884.803406 
	C764.120056,884.827393 740.030640,884.792480 715.636475,884.429565 
	C720.121155,880.487915 723.054443,876.112976 722.201599,869.712585 
	C722.010498,868.278931 722.842529,866.314697 723.861511,865.191528 
	C726.451965,862.335999 725.494324,860.033813 723.208740,857.873108 
	C722.046143,856.774048 720.538940,856.039612 719.187500,855.140320 
	C719.495117,854.435730 719.802795,853.731079 720.110413,853.026489 
	C747.059082,853.026489 774.007690,853.026489 801.074585,853.347839 
	C801.559387,854.217957 801.822632,854.889771 802.307922,855.296875 
	C808.730042,860.685425 808.989868,863.535767 804.639160,870.614563 
	C802.596558,873.938171 801.445923,877.809937 799.513916,882.312012 
	C802.775146,882.629639 804.678284,882.968689 806.582581,882.975769 
	C820.053894,883.025818 833.526245,882.941101 846.996216,883.083862 
	C848.998535,883.105103 850.990479,884.095520 852.987244,884.637573 
z"/>
<path fill="#51C393" opacity="1.000000" stroke="none" 
	d="
M557.086914,864.608521 
	C558.109802,863.900635 559.560364,862.800171 560.464233,863.142578 
	C564.314026,864.601318 566.497009,862.985962 568.114075,859.758423 
	C568.411682,859.164429 568.873352,858.602661 568.990906,857.975769 
	C570.754456,848.569336 577.721924,846.356689 586.638000,845.738159 
	C594.982666,847.809692 602.533081,849.858398 610.441528,852.102295 
	C612.763306,852.528320 614.725220,852.937866 616.691040,852.958313 
	C624.508728,853.039673 632.329041,852.908264 640.145691,853.030273 
	C647.977661,853.152466 651.830627,857.811218 650.165100,865.331665 
	C648.926086,870.926270 647.220459,876.417480 645.555969,882.571167 
	C648.013977,882.745789 649.780212,882.971313 651.547485,882.979858 
	C660.031128,883.020813 668.517212,882.902771 676.997437,883.079773 
	C679.008362,883.121704 681.000122,884.082642 683.000671,884.620850 
	C656.187622,884.426941 629.341675,884.969299 602.573547,883.771851 
	C585.634460,883.014099 570.501770,875.665588 557.086914,864.608521 
z"/>
<path fill="#43BBB1" opacity="1.000000" stroke="none" 
	d="
M853.451660,884.715820 
	C850.990479,884.095520 848.998535,883.105103 846.996216,883.083862 
	C833.526245,882.941101 820.053894,883.025818 806.582581,882.975769 
	C804.678284,882.968689 802.775146,882.629639 799.513916,882.312012 
	C801.445923,877.809937 802.596558,873.938171 804.639160,870.614563 
	C808.989868,863.535767 808.730042,860.685425 802.307922,855.296875 
	C801.822632,854.889771 801.559387,854.217957 801.548096,853.338135 
	C827.603882,853.003296 853.304382,852.999390 879.004883,852.995544 
	C880.421692,853.681885 881.814697,854.891785 883.259705,854.957520 
	C887.788025,855.163391 890.024170,858.027649 891.834412,861.550171 
	C892.195068,862.251892 892.671021,863.328064 892.390076,863.859375 
	C889.292114,869.717468 889.876221,877.780334 882.279419,880.973145 
	C882.183838,881.013367 882.178894,881.269104 881.874207,882.268860 
	C883.571960,882.518005 885.185913,882.949707 886.802612,882.960327 
	C896.790222,883.026062 906.778931,882.940002 916.765747,883.048889 
	C918.679443,883.069702 920.586121,883.733398 922.741394,884.373596 
	C899.963196,884.695862 876.939636,884.744995 853.451660,884.715820 
z"/>
<path fill="#4EC3A0" opacity="1.000000" stroke="none" 
	d="
M879.473022,852.987122 
	C853.304382,852.999390 827.603882,853.003296 801.429810,853.016846 
	C774.007690,853.026489 747.059082,853.026489 720.110413,853.026489 
	C719.802795,853.731079 719.495117,854.435730 719.187500,855.140320 
	C720.538940,856.039612 722.046143,856.774048 723.208740,857.873108 
	C725.494324,860.033813 726.451965,862.335999 723.861511,865.191528 
	C722.842529,866.314697 722.010498,868.278931 722.201599,869.712585 
	C723.054443,876.112976 720.121155,880.487915 715.175476,884.347656 
	C704.655090,884.671814 694.290894,884.724243 683.463745,884.698730 
	C681.000122,884.082642 679.008362,883.121704 676.997437,883.079773 
	C668.517212,882.902771 660.031128,883.020813 651.547485,882.979858 
	C649.780212,882.971313 648.013977,882.745789 645.555969,882.571167 
	C647.220459,876.417480 648.926086,870.926270 650.165100,865.331665 
	C651.830627,857.811218 647.977661,853.152466 640.145691,853.030273 
	C632.329041,852.908264 624.508728,853.039673 616.691040,852.958313 
	C614.725220,852.937866 612.763306,852.528320 610.896667,852.025940 
	C688.150452,851.724243 765.307129,851.675110 842.463867,851.675537 
	C865.955200,851.675659 889.446533,851.812195 912.937866,851.886230 
	C909.368347,852.242371 905.803894,852.827332 902.228210,852.907104 
	C894.802307,853.072937 887.370483,852.970703 879.473022,852.987122 
z"/>
<path fill="#6CCF67" opacity="1.000000" stroke="none" 
	d="
M521.942993,563.470215 
	C523.220032,564.069336 524.675171,564.951782 525.572876,566.226807 
	C528.043274,569.735779 530.215942,569.349854 532.551270,566.156189 
	C537.874573,558.876404 541.861633,550.606873 549.197754,544.794312 
	C550.836243,543.496094 551.596069,540.458984 551.832153,538.128357 
	C552.923767,527.351562 553.687805,516.541504 554.806763,505.833496 
	C554.995178,537.275635 554.945984,568.627686 554.896790,599.979797 
	C554.270081,601.430420 553.136536,602.868713 553.100708,604.333801 
	C552.900024,612.534363 550.286133,619.331665 544.115295,625.178833 
	C540.091064,628.992004 537.070374,634.012573 534.180542,638.839844 
	C529.886230,646.013245 529.429321,646.345581 522.353149,642.106201 
	C521.976440,615.984009 521.921631,589.958374 521.942993,563.470215 
z"/>
<path fill="#64CB73" opacity="1.000000" stroke="none" 
	d="
M775.969727,184.952621 
	C775.970093,184.771957 775.970520,184.591293 775.973450,184.139648 
	C793.096436,183.797028 810.216858,183.675858 827.337463,183.664001 
	C863.585754,183.638901 899.834106,183.670837 936.544312,183.770447 
	C936.998779,184.042892 936.991211,184.224274 936.510132,184.687256 
	C924.093628,184.981323 912.128052,185.439941 900.216309,184.836548 
	C893.232483,184.482803 888.287720,186.287369 884.321655,192.124161 
	C880.931152,197.113800 875.471008,201.039551 873.251465,206.398819 
	C870.236755,213.678131 865.594482,216.058258 858.477295,216.100861 
	C856.659485,216.111740 854.847839,217.136459 852.567993,217.770752 
	C835.068359,217.790665 818.034119,217.735214 801.096558,217.360229 
	C802.149292,215.502914 803.047424,213.925522 804.071045,212.434189 
	C808.554077,205.902725 813.331665,199.556320 817.502808,192.832840 
	C821.216125,186.847305 820.022278,185.073135 812.848816,185.022064 
	C800.556213,184.934525 788.262817,184.969238 775.969727,184.952621 
z"/>
<path fill="#3FB4B4" opacity="1.000000" stroke="none" 
	d="
M1008.468689,884.696777 
	C1009.169189,884.091797 1010.325439,883.130981 1011.492859,883.117126 
	C1021.247253,883.001587 1031.003906,883.033630 1040.759033,883.110596 
	C1041.671265,883.117737 1042.578857,883.740479 1043.733398,884.347900 
	C1032.295288,884.672180 1020.612488,884.726013 1008.468689,884.696777 
z"/>
<path fill="#3CAFBD" opacity="1.000000" stroke="none" 
	d="
M1082.449951,884.696655 
	C1085.177368,884.446655 1088.352661,884.277405 1091.762207,884.373718 
	C1088.963501,884.685364 1085.930664,884.731384 1082.449951,884.696655 
z"/>
<path fill="#349CCA" opacity="1.000000" stroke="none" 
	d="
M1399.936035,653.634033 
	C1398.358643,653.890625 1396.857544,653.774475 1395.356445,653.658325 
	C1395.283203,653.250244 1395.209961,652.842224 1395.136597,652.434204 
	C1396.480835,651.980347 1397.825195,651.526489 1399.512695,651.033813 
	C1399.908081,651.750427 1399.960205,652.505798 1399.936035,653.634033 
z"/>
<path fill="#3CAFBD" opacity="1.000000" stroke="none" 
	d="
M1388.128174,230.727936 
	C1386.916016,231.457535 1385.692017,231.967438 1384.467896,232.477325 
	C1384.281250,232.001923 1384.094727,231.526505 1383.908081,231.051102 
	C1384.909668,230.660995 1385.911255,230.270889 1387.264648,229.843628 
	C1387.879517,229.971619 1388.046143,230.205536 1388.128174,230.727936 
z"/>
<path fill="#3CAFBD" opacity="1.000000" stroke="none" 
	d="
M1118.420166,884.692261 
	C1119.547974,884.456848 1121.084839,884.305237 1122.804077,884.394714 
	C1121.600708,884.682495 1120.214966,884.729187 1118.420166,884.692261 
z"/>
<path fill="#3CAFBD" opacity="1.000000" stroke="none" 
	d="
M1095.414062,884.719482 
	C1096.543335,884.474548 1098.083984,884.308655 1099.810303,884.382996 
	C1098.605713,884.681702 1097.215454,884.740112 1095.414062,884.719482 
z"/>
<path fill="#3AA9C2" opacity="1.000000" stroke="none" 
	d="
M1178.326660,884.716919 
	C1180.759277,884.450806 1183.652588,884.264526 1186.877197,884.343811 
	C1184.401489,884.671814 1181.594238,884.734314 1178.326660,884.716919 
z"/>
<path fill="#43BBB1" opacity="1.000000" stroke="none" 
	d="
M927.404663,884.711914 
	C928.226990,884.481262 929.442139,884.328796 930.821045,884.402954 
	C929.922302,884.683167 928.859863,884.736633 927.404663,884.711914 
z"/>
<path fill="#3CAFBD" opacity="1.000000" stroke="none" 
	d="
M1104.331299,884.688416 
	C1104.597168,884.496643 1105.191772,884.381714 1105.889160,884.437012 
	C1105.547974,884.659912 1105.104126,884.712524 1104.331299,884.688416 
z"/>
<path fill="#7DD548" opacity="1.000000" stroke="none" 
	d="
M521.946777,375.258636 
	C522.139832,375.245300 522.179565,375.489746 522.075195,375.866455 
	C521.981873,375.824402 521.935974,375.663635 521.946777,375.258636 
z"/>
<path fill="#0F1114" opacity="1.000000" stroke="none" 
	d="
M1310.388916,851.792175 
	C1287.030884,851.817261 1264.069702,851.676331 1241.108521,851.666077 
	C1160.388794,851.629944 1079.669067,851.638672 998.491333,851.717102 
	C997.004944,851.853455 995.976440,851.903137 994.561035,851.939941 
	C993.240784,851.319580 992.376709,850.541687 991.363770,850.130432 
	C980.085938,845.552185 974.103210,836.957825 974.086914,824.668030 
	C974.021240,775.085449 974.034729,725.502747 974.017822,674.993652 
	C974.033020,639.776123 974.018555,605.484985 974.082153,571.193970 
	C974.104980,558.884705 981.724060,548.436157 993.120911,545.456238 
	C996.927063,544.460999 1001.016235,544.547913 1005.410156,544.230408 
	C1007.907288,544.255127 1009.970276,544.189697 1012.491943,544.216125 
	C1019.634705,544.235046 1026.318726,544.161987 1033.463989,544.176025 
	C1043.051758,544.279724 1052.178223,544.329285 1061.304565,544.306213 
	C1081.875000,544.254272 1102.445557,544.166504 1123.475952,544.184204 
	C1153.182007,544.293518 1182.428223,544.343567 1211.674316,544.317749 
	C1228.119507,544.303223 1244.564575,544.163269 1261.009766,544.079834 
	C1282.902466,544.155273 1304.795288,544.221252 1326.687988,544.312866 
	C1332.161133,544.335754 1337.634033,544.441284 1343.728027,544.590576 
	C1344.348999,544.672363 1344.696411,544.615295 1344.696411,544.615295 
	C1356.925171,547.433289 1364.170288,555.027710 1366.655029,567.677002 
	C1366.841675,602.696960 1366.857788,637.388245 1366.953613,672.543030 
	C1366.954468,698.810181 1366.860474,724.613770 1366.802124,750.417419 
	C1366.772461,763.571411 1366.356445,776.744202 1366.900757,789.875916 
	C1368.245728,822.327698 1343.946533,850.405762 1310.388916,851.792175 
M1051.790161,716.290833 
	C1066.010132,702.487366 1080.241211,688.695190 1094.445068,674.875122 
	C1100.420044,669.061584 1100.346802,662.323242 1094.407104,656.650757 
	C1085.253784,647.909241 1076.144897,639.121399 1067.016602,630.353638 
	C1059.209717,622.854858 1051.477783,615.275574 1043.567261,607.887878 
	C1038.582397,603.232483 1031.604004,603.459473 1027.489746,608.089111 
	C1023.401978,612.688904 1024.080078,618.741211 1029.053955,623.519836 
	C1041.664185,635.635254 1054.213379,647.814026 1066.806763,659.947021 
	C1068.808228,661.875183 1070.911621,663.697388 1073.090210,665.679993 
	C1071.346802,667.501343 1070.243896,668.723511 1069.068237,669.870972 
	C1055.719116,682.898071 1042.343872,695.898376 1029.009521,708.940491 
	C1023.826050,714.010437 1023.515686,720.281616 1028.115967,724.734436 
	C1032.658081,729.130798 1039.059204,728.710510 1044.097778,723.723022 
	C1046.464478,721.380310 1048.887085,719.094238 1051.790161,716.290833 
M1151.500000,710.867859 
	C1141.503906,710.867432 1131.507690,710.836487 1121.511719,710.878479 
	C1115.770264,710.902527 1112.200562,714.103088 1112.259033,719.023926 
	C1112.316040,723.815674 1115.745850,727.036560 1121.167603,727.050720 
	C1142.659058,727.107056 1164.151001,727.114258 1185.642456,727.061829 
	C1191.451294,727.047607 1194.999390,723.801636 1194.931274,718.916687 
	C1194.863525,714.060120 1191.304810,710.933655 1185.486572,710.894714 
	C1174.491455,710.821106 1163.495605,710.869080 1151.500000,710.867859 
z"/>
<path fill="#36A2C8" opacity="1.000000" stroke="none" 
	d="
M1385.643188,673.583496 
	C1385.785400,673.878174 1385.784180,674.130432 1385.782959,674.382751 
	C1385.529785,674.304382 1385.276367,674.225952 1385.023071,674.147583 
	C1385.182007,673.945435 1385.340942,673.743347 1385.643188,673.583496 
z"/>
<path fill="#0E1113" opacity="1.000000" stroke="none" 
	d="
M1249.005371,217.688217 
	C1268.067017,217.741257 1287.128784,217.794312 1306.614380,217.773834 
	C1326.958984,217.512711 1343.295776,224.854431 1355.554077,240.779114 
	C1362.256226,249.485825 1365.378906,259.541809 1366.833008,270.645813 
	C1366.926392,317.036163 1366.897827,363.058105 1366.948975,409.543640 
	C1366.928833,436.022369 1366.828857,462.037445 1366.664307,488.774933 
	C1366.612549,489.684143 1366.625488,489.870972 1366.638428,490.057800 
	C1363.500244,502.710632 1355.930664,510.684418 1342.111328,512.786743 
	C1341.330566,512.911133 1341.162842,512.955444 1340.995117,512.999817 
	C1340.244385,512.943359 1339.493774,512.886902 1337.911865,512.828125 
	C1318.316284,512.802185 1299.552002,512.738831 1280.787598,512.766418 
	C1262.858887,512.792786 1244.930420,512.914001 1226.539795,512.907593 
	C1197.670166,512.800171 1169.262451,512.752380 1140.854858,512.767822 
	C1126.240845,512.775818 1111.626953,512.896301 1096.550781,512.877319 
	C1065.639282,512.791260 1035.188965,512.642578 1004.741760,512.890320 
	C995.814636,512.962952 988.003662,510.903961 981.237732,504.571594 
	C980.400146,503.534882 979.693604,502.781647 978.996826,502.015076 
	C979.006653,502.001740 978.975708,502.011261 978.865051,501.675018 
	C977.191956,496.010193 974.569580,490.738556 974.279602,485.341583 
	C973.601562,472.722443 974.051208,460.043182 974.029297,447.388245 
	C973.969543,412.924408 973.902039,378.460602 973.913696,343.533752 
	C974.014038,308.720154 974.038330,274.369598 974.062622,240.019012 
	C976.748718,230.517227 981.869873,223.059296 992.141541,219.121979 
	C996.309265,218.582031 999.763611,217.981537 1003.222168,217.956238 
	C1024.483887,217.800705 1045.746704,217.775131 1067.472168,217.778275 
	C1093.626221,217.794678 1119.317261,217.739090 1145.470215,217.759995 
	C1180.289917,217.787064 1214.647705,217.737640 1249.005371,217.688217 
M1074.719604,310.392151 
	C1064.445557,300.472595 1054.189209,290.534546 1043.889404,280.641815 
	C1039.140991,276.081116 1032.542358,275.880066 1028.173218,280.055176 
	C1023.841858,284.194214 1023.400879,290.636932 1027.636963,294.778412 
	C1036.316040,303.263794 1045.228516,311.510559 1054.364014,320.423889 
	C1055.638184,321.598022 1056.912476,322.772186 1058.421753,324.432404 
	C1058.965454,324.892578 1059.509277,325.352783 1060.408569,326.389496 
	C1064.476562,330.459656 1068.544556,334.529816 1073.088745,339.076416 
	C1070.774170,341.161957 1068.608521,342.978851 1066.594116,344.950226 
	C1053.861694,357.410492 1041.113037,369.854950 1028.478516,382.413971 
	C1023.749573,387.114563 1023.602234,393.378876 1027.762451,397.497589 
	C1032.051392,401.743774 1038.814819,401.684265 1043.461182,397.186279 
	C1060.805420,380.395996 1078.129517,363.584839 1095.398926,346.717651 
	C1099.980347,342.243011 1100.153076,335.029083 1095.634766,330.562378 
	C1088.897095,323.901733 1081.898438,317.505066 1074.719604,310.392151 
M1141.500000,400.083374 
	C1156.146484,400.062805 1170.793091,400.087402 1185.439209,399.999451 
	C1191.297485,399.964264 1194.900024,396.805115 1194.902100,392.021301 
	C1194.904297,387.086853 1191.410278,383.908081 1185.619263,383.895142 
	C1164.149048,383.847290 1142.678589,383.847992 1121.208374,383.905243 
	C1115.795166,383.919678 1112.351440,387.131195 1112.278320,391.878723 
	C1112.202637,396.797577 1115.793213,400.018280 1121.526489,400.062103 
	C1127.850708,400.110413 1134.175415,400.077209 1141.500000,400.083374 
z"/>
<path fill="#3CAFBD" opacity="1.000000" stroke="none" 
	d="
M1227.001831,512.993530 
	C1244.930420,512.914001 1262.858887,512.792786 1280.787598,512.766418 
	C1299.552002,512.738831 1318.316284,512.802185 1337.542725,512.913452 
	C1335.732300,513.333984 1333.460815,513.945068 1331.186768,513.955505 
	C1313.396484,514.037231 1295.605835,513.991272 1277.815186,514.024048 
	C1275.918335,514.027527 1274.021851,514.283325 1271.086548,514.498108 
	C1277.829834,523.629578 1272.480713,528.870422 1266.548096,534.013977 
	C1263.723511,536.462830 1260.130371,538.548828 1261.009888,543.668945 
	C1244.564575,544.163269 1228.119507,544.303223 1211.674316,544.317749 
	C1182.428223,544.343567 1153.182007,544.293518 1123.478271,543.783447 
	C1124.206177,541.096497 1125.288696,538.836365 1126.616577,536.731079 
	C1127.386475,535.510620 1129.051880,534.691223 1129.436401,533.424866 
	C1130.299194,530.583740 1131.637329,529.346680 1134.787842,529.516785 
	C1135.666626,529.564270 1137.491089,527.177063 1137.496826,525.900513 
	C1137.537842,516.738892 1140.075806,514.020630 1149.329834,514.012939 
	C1172.780640,513.993469 1196.231567,514.026245 1219.682129,513.947693 
	C1222.123047,513.939514 1224.562012,513.326111 1227.001831,512.993530 
z"/>
<path fill="#3CAFBD" opacity="1.000000" stroke="none" 
	d="
M1341.118652,513.051697 
	C1341.162842,512.955444 1341.330566,512.911133 1341.753052,512.919312 
	C1342.007935,512.971863 1341.636841,513.116333 1341.636841,513.116333 
	C1341.636841,513.116333 1341.242188,513.103577 1341.118652,513.051697 
z"/>
<path fill="#43BBB1" opacity="1.000000" stroke="none" 
	d="
M1344.638428,544.534729 
	C1344.696411,544.615295 1344.348999,544.672363 1344.200195,544.581909 
	C1344.224365,544.341614 1344.400757,544.329224 1344.638428,544.534729 
z"/>
<path fill="#3CAFBD" opacity="1.000000" stroke="none" 
	d="
M1366.727295,489.940369 
	C1366.625488,489.870972 1366.612549,489.684143 1366.713135,489.240387 
	C1366.958252,489.267914 1366.954834,489.547760 1366.727295,489.940369 
z"/>
<path fill="#0E1013" opacity="1.000000" stroke="none" 
	d="
M800.999817,217.679749 
	C818.034119,217.735214 835.068359,217.790665 853.027466,217.845154 
	C873.833435,217.865936 893.715576,217.792816 913.595215,217.982727 
	C918.016357,218.024963 922.428711,218.993439 926.845093,219.535446 
	C938.060242,225.322281 944.016418,234.191696 943.165100,247.140244 
	C942.991760,249.776520 943.168762,252.435822 943.185791,256.008545 
	C943.174316,264.238159 943.139587,271.543732 943.152649,278.849274 
	C943.201599,306.241180 943.266113,333.633057 943.246094,361.485046 
	C943.160461,397.517487 943.134277,433.089844 943.155334,468.662201 
	C943.164490,484.115906 943.270813,499.569519 943.257812,515.434814 
	C943.240295,518.309631 943.297913,520.772827 943.271118,523.666809 
	C943.241760,528.075378 943.296814,532.053162 943.273010,536.491638 
	C943.183289,570.690430 943.149353,604.428406 943.171753,638.166443 
	C943.182373,654.116516 943.300781,670.066528 943.286926,686.424805 
	C943.254822,688.216675 943.306152,689.600403 943.274170,691.439392 
	C943.236328,695.601807 943.281799,699.308960 943.327271,703.016052 
	C943.262817,736.108154 943.196838,769.200317 943.134949,802.292419 
	C943.123108,808.612366 943.136536,814.932312 943.122498,821.252258 
	C943.077698,841.351013 933.517700,851.230957 913.302612,851.795288 
	C889.446533,851.812195 865.955200,851.675659 842.463867,851.675537 
	C765.307129,851.675110 688.150452,851.724243 610.538574,851.830688 
	C602.533081,849.858398 594.982666,847.809692 587.097290,845.662903 
	C565.119751,833.036804 554.470154,814.420654 554.998230,789.268860 
	C555.336609,773.152283 555.065918,757.022827 554.993896,740.431396 
	C554.975464,720.694580 555.065613,701.425415 555.079163,682.156311 
	C555.098267,655.074585 555.060669,627.992859 554.972046,600.445435 
	C554.945984,568.627686 554.995178,537.275635 554.972534,505.458923 
	C554.946533,472.968536 554.992310,440.942749 554.963501,408.452148 
	C554.946594,371.615875 555.007019,335.244415 555.058594,298.872925 
	C555.065186,294.222382 555.025513,289.571808 554.934570,284.456665 
	C555.699890,275.597748 555.333130,266.861664 557.599182,258.872314 
	C564.716980,233.777008 586.181335,218.399780 613.796265,217.860046 
	C614.668335,217.802780 614.837402,217.764313 615.006470,217.725830 
	C618.367065,217.757431 621.727722,217.789032 625.540588,217.746246 
	C650.347778,217.727005 674.702637,217.782181 699.984863,217.838928 
	C734.274780,217.786926 767.637268,217.733337 800.999817,217.679749 
M649.287292,359.587830 
	C654.893738,364.943268 660.500122,370.298706 666.910034,376.421600 
	C664.949646,377.915405 663.359741,378.884094 662.062378,380.152252 
	C645.637512,396.207611 629.260620,412.312073 612.858032,428.390289 
	C607.172791,433.963196 606.514771,441.913055 611.352112,447.146851 
	C616.257080,452.453735 625.188232,452.828094 630.692444,447.512512 
	C652.122742,426.816650 673.458679,406.022614 694.747681,385.181366 
	C699.910645,380.126953 700.112061,371.244934 694.946777,366.211426 
	C686.137695,357.627106 676.988647,349.391724 667.690735,340.410706 
	C655.557129,328.797607 643.445496,317.161438 631.280334,305.581512 
	C625.498535,300.077881 616.929871,300.155426 611.562561,305.638519 
	C606.830078,310.473114 606.679932,318.846191 611.697998,323.682922 
	C624.021606,335.561218 636.541565,347.235840 649.287292,359.587830 
M816.174988,444.374420 
	C818.200256,435.649200 814.464661,430.646332 805.661194,430.628204 
	C778.998779,430.573334 752.336243,430.593414 725.673706,430.629303 
	C719.524292,430.637573 715.254456,434.644836 715.172852,440.266510 
	C715.091492,445.870636 719.301208,450.237793 725.355591,450.253265 
	C752.517944,450.322693 779.680725,450.238831 806.843323,450.253998 
	C810.900391,450.256256 813.869385,448.571289 816.174988,444.374420 
z"/>
<path fill="#45BCAB" opacity="1.000000" stroke="none" 
	d="
M943.370300,686.016541 
	C943.300781,670.066528 943.182373,654.116516 943.171753,638.166443 
	C943.149353,604.428406 943.183289,570.690430 943.546387,536.734741 
	C944.269775,540.581055 944.420532,544.681335 945.081970,548.697632 
	C945.608215,551.893494 946.758118,554.986755 947.631165,558.125549 
	C948.131653,558.038208 948.632202,557.950928 949.132690,557.863586 
	C951.737366,551.893311 954.832642,546.079529 956.802185,539.906616 
	C958.602295,534.264771 958.651001,528.057617 960.511108,522.444031 
	C961.559509,519.279968 964.695679,516.801758 966.915283,514.033813 
	C968.212158,512.416565 969.427673,510.704376 970.908020,509.270508 
	C973.504822,506.755371 976.277039,504.421234 978.975708,502.011261 
	C978.975708,502.011261 979.006653,502.001740 979.064941,502.342224 
	C979.871704,503.406799 980.620300,504.130920 981.368835,504.855042 
	C988.003662,510.903961 995.814636,512.962952 1004.741760,512.890320 
	C1035.188965,512.642578 1065.639282,512.791260 1096.181641,513.064636 
	C1094.308838,513.557861 1092.344116,513.949036 1090.376709,513.962952 
	C1080.739136,514.031067 1071.097046,514.158386 1061.464233,513.934204 
	C1056.666870,513.822632 1053.744507,516.099609 1051.314941,519.831177 
	C1048.105103,524.761108 1044.794312,529.633240 1041.308960,534.369995 
	C1040.515869,535.447876 1038.901489,536.278870 1037.541260,536.517090 
	C1032.945068,537.322083 1031.941895,540.024780 1033.002686,544.088928 
	C1026.318726,544.161987 1019.634705,544.235046 1012.169983,544.024231 
	C1009.251526,543.873718 1007.113770,544.006958 1004.976013,544.140198 
	C1001.016235,544.547913 996.927063,544.460999 993.120911,545.456238 
	C981.724060,548.436157 974.104980,558.884705 974.082153,571.193970 
	C974.018555,605.484985 974.033020,639.776123 973.942261,674.529907 
	C968.590088,676.771851 964.208374,678.269775 960.618530,684.173523 
	C956.179749,691.473267 955.895203,699.618164 952.276794,706.782288 
	C951.644897,708.033386 950.739380,709.146362 949.960144,710.323059 
	C948.859619,709.252563 947.664673,708.261108 946.684753,707.089783 
	C945.671387,705.878540 944.866760,704.492676 943.649048,703.099609 
	C943.281799,699.308960 943.236328,695.601807 943.515930,691.257324 
	C943.684082,689.085449 943.527161,687.551025 943.370300,686.016541 
z"/>
<path fill="#76D451" opacity="1.000000" stroke="none" 
	d="
M614.951538,217.601807 
	C614.837402,217.764313 614.668335,217.802780 614.245178,217.785583 
	C614.292969,217.645905 614.594788,217.561844 614.951538,217.601807 
z"/>
<path fill="#51C393" opacity="1.000000" stroke="none" 
	d="
M943.324829,361.024963 
	C943.266113,333.633057 943.201599,306.241180 943.152649,278.849274 
	C943.139587,271.543732 943.174316,264.238159 943.265747,256.471039 
	C943.894348,258.168091 944.731140,260.298859 944.943909,262.490173 
	C945.773071,271.029816 946.355164,279.593323 947.159729,288.135620 
	C947.287354,289.490723 948.085632,290.782623 948.552002,292.044647 
	C949.406250,291.846161 949.913147,291.867096 949.997131,291.688812 
	C953.068176,285.170258 956.080566,278.624084 959.143738,272.101807 
	C961.319458,267.469116 963.807678,262.964691 965.687988,258.217529 
	C967.245056,254.286362 968.451721,250.142227 969.176941,245.981476 
	C969.674561,243.126282 970.033264,240.733749 973.697998,240.063934 
	C974.038330,274.369598 974.014038,308.720154 973.561157,343.611847 
	C972.101624,345.858307 970.684265,347.445007 970.116943,349.292664 
	C968.761963,353.705933 968.290710,358.434265 966.598145,362.691650 
	C962.074158,374.070892 957.140015,385.288788 952.249390,396.518738 
	C951.513916,398.207733 950.136353,399.617096 949.055786,401.155823 
	C947.761963,399.397461 946.191772,397.770142 945.273804,395.833588 
	C944.685425,394.592560 945.012695,392.895569 945.009338,391.402802 
	C944.990845,383.262878 945.104065,375.120392 944.918762,366.984589 
	C944.873291,364.986969 943.881531,363.010925 943.324829,361.024963 
z"/>
<path fill="#4EC3A0" opacity="1.000000" stroke="none" 
	d="
M1145.008179,217.683517 
	C1119.317261,217.739090 1093.626221,217.794678 1067.229980,217.498535 
	C1060.998291,216.500046 1055.471680,215.853287 1050.604248,215.283646 
	C1052.319458,210.359955 1053.806519,205.919434 1055.416382,201.523895 
	C1056.720459,197.962814 1058.166138,194.453400 1059.560547,190.925629 
	C1060.342041,188.948914 1061.146973,186.981506 1061.941406,185.009888 
	C1071.976074,184.987350 1082.010742,184.964798 1092.511597,184.938736 
	C1105.359375,184.960175 1117.740967,184.985123 1130.625610,185.425995 
	C1131.109619,189.424591 1131.706665,193.153229 1130.902100,196.549820 
	C1130.058716,200.109406 1127.829834,203.331909 1126.277222,206.734009 
	C1122.059204,215.976593 1122.078125,215.819626 1132.093384,216.068710 
	C1136.409058,216.176056 1140.703857,217.119766 1145.008179,217.683517 
z"/>
<path fill="#59C782" opacity="1.000000" stroke="none" 
	d="
M926.928955,219.156128 
	C922.428711,218.993439 918.016357,218.024963 913.595215,217.982727 
	C893.715576,217.792816 873.833435,217.865936 853.492798,217.769791 
	C854.847839,217.136459 856.659485,216.111740 858.477295,216.100861 
	C865.594482,216.058258 870.236755,213.678131 873.251465,206.398819 
	C875.471008,201.039551 880.931152,197.113800 884.321655,192.124161 
	C888.287720,186.287369 893.232483,184.482803 900.216309,184.836548 
	C912.128052,185.439941 924.093628,184.981323 936.501343,184.959412 
	C940.018494,184.949997 943.070801,184.949997 947.566650,184.949997 
	C944.092224,190.036331 941.478699,193.527145 939.267639,197.256577 
	C938.320618,198.854019 937.756775,200.959427 937.802734,202.814606 
	C937.971558,209.620087 936.059082,212.848877 929.647461,216.106293 
	C928.589966,216.643555 927.882141,217.869263 926.928955,219.156128 
z"/>
<path fill="#51C393" opacity="1.000000" stroke="none" 
	d="
M1061.478760,185.002670 
	C1061.146973,186.981506 1060.342041,188.948914 1059.560547,190.925629 
	C1058.166138,194.453400 1056.720459,197.962814 1055.416382,201.523895 
	C1053.806519,205.919434 1052.319458,210.359955 1050.604248,215.283646 
	C1055.471680,215.853287 1060.998291,216.500046 1066.766968,217.426544 
	C1045.746704,217.775131 1024.483887,217.800705 1003.222168,217.956238 
	C999.763611,217.981537 996.309265,218.582031 992.433594,218.931702 
	C992.429199,213.299026 993.089539,207.899307 996.722229,203.006302 
	C1000.033508,198.546310 1002.483948,193.419922 1005.073975,188.461960 
	C1006.655029,185.435364 1009.063904,184.958267 1012.100769,184.971603 
	C1028.405640,185.043198 1044.711060,184.999405 1061.478760,185.002670 
z"/>
<path fill="#3CAFBD" opacity="1.000000" stroke="none" 
	d="
M1386.707886,250.826813 
	C1386.036621,249.359573 1385.638428,248.030655 1385.240234,246.701721 
	C1386.232666,246.963226 1387.225098,247.224747 1388.217529,247.486252 
	C1387.805298,248.645874 1387.393066,249.805496 1386.707886,250.826813 
z"/>
<path fill="#45BCAB" opacity="1.000000" stroke="none" 
	d="
M1145.470215,217.759995 
	C1140.703857,217.119766 1136.409058,216.176056 1132.093384,216.068710 
	C1122.078125,215.819626 1122.059204,215.976593 1126.277222,206.734009 
	C1127.829834,203.331909 1130.058716,200.109406 1130.902100,196.549820 
	C1131.706665,193.153229 1131.109619,189.424591 1131.098511,185.435913 
	C1154.534180,185.020798 1178.000122,185.045715 1201.465698,184.972580 
	C1205.913574,184.958710 1210.215820,184.550705 1211.550293,190.427032 
	C1212.661865,195.321594 1210.055908,200.586945 1205.925903,203.693466 
	C1202.025757,206.627228 1198.912842,210.607559 1194.501709,215.096085 
	C1197.675171,215.514420 1199.515625,215.959366 1201.357910,215.967621 
	C1215.004517,216.028732 1228.651855,215.955765 1242.297974,216.054825 
	C1244.374023,216.069916 1246.445190,216.755951 1248.761963,217.409927 
	C1214.647705,217.737640 1180.289917,217.787064 1145.470215,217.759995 
z"/>
<path fill="#6CCF67" opacity="1.000000" stroke="none" 
	d="
M801.096558,217.360214 
	C767.637268,217.733337 734.274780,217.786926 700.447144,217.764740 
	C703.126160,217.121155 706.278564,216.056458 709.412170,216.109314 
	C713.476013,216.177856 716.426086,214.895615 718.765625,211.648376 
	C721.360413,208.046844 724.054138,204.510468 726.849548,201.063171 
	C727.750061,199.952698 728.988770,198.696396 730.279907,198.395508 
	C735.845154,197.098587 738.309814,193.305649 738.661072,188.092056 
	C738.891052,184.678818 741.058960,185.018036 743.161865,185.007736 
	C753.787476,184.955688 764.413391,184.966644 775.504517,184.954071 
	C788.262817,184.969238 800.556213,184.934525 812.848816,185.022064 
	C820.022278,185.073135 821.216125,186.847305 817.502808,192.832840 
	C813.331665,199.556320 808.554077,205.902725 804.071045,212.434189 
	C803.047424,213.925522 802.149292,215.502914 801.096558,217.360214 
z"/>
<path fill="#3CAFBD" opacity="1.000000" stroke="none" 
	d="
M1051.537231,716.536682 
	C1048.887085,719.094238 1046.464478,721.380310 1044.097778,723.723022 
	C1039.059204,728.710510 1032.658081,729.130798 1028.115967,724.734436 
	C1023.515686,720.281616 1023.826050,714.010437 1029.009521,708.940491 
	C1042.343872,695.898376 1055.719116,682.898071 1069.068237,669.870972 
	C1070.243896,668.723511 1071.346802,667.501343 1073.090210,665.679993 
	C1070.911621,663.697388 1068.808228,661.875183 1066.806763,659.947021 
	C1054.213379,647.814026 1041.664185,635.635254 1029.053955,623.519836 
	C1024.080078,618.741211 1023.401978,612.688904 1027.489746,608.089111 
	C1031.604004,603.459473 1038.582397,603.232483 1043.567261,607.887878 
	C1051.477783,615.275574 1059.209717,622.854858 1067.016602,630.353638 
	C1076.144897,639.121399 1085.253784,647.909241 1094.407104,656.650757 
	C1100.346802,662.323242 1100.420044,669.061584 1094.445068,674.875122 
	C1080.241211,688.695190 1066.010132,702.487366 1051.537231,716.536682 
z"/>
<path fill="#43BBB1" opacity="1.000000" stroke="none" 
	d="
M1033.463989,544.176025 
	C1031.941895,540.024780 1032.945068,537.322083 1037.541260,536.517090 
	C1038.901489,536.278870 1040.515869,535.447876 1041.308960,534.369995 
	C1044.794312,529.633240 1048.105103,524.761108 1051.314941,519.831177 
	C1053.744507,516.099609 1056.666870,513.822632 1061.464233,513.934204 
	C1071.097046,514.158386 1080.739136,514.031067 1090.376709,513.962952 
	C1092.344116,513.949036 1094.308838,513.557861 1096.643799,513.153259 
	C1111.626953,512.896301 1126.240845,512.775818 1140.854858,512.767822 
	C1169.262451,512.752380 1197.670166,512.800171 1226.539795,512.907593 
	C1224.562012,513.326111 1222.123047,513.939514 1219.682129,513.947693 
	C1196.231567,514.026245 1172.780640,513.993469 1149.329834,514.012939 
	C1140.075806,514.020630 1137.537842,516.738892 1137.496826,525.900513 
	C1137.491089,527.177063 1135.666626,529.564270 1134.787842,529.516785 
	C1131.637329,529.346680 1130.299194,530.583740 1129.436401,533.424866 
	C1129.051880,534.691223 1127.386475,535.510620 1126.616577,536.731079 
	C1125.288696,538.836365 1124.206177,541.096497 1123.018311,543.692505 
	C1102.445557,544.166504 1081.875000,544.254272 1061.304565,544.306213 
	C1052.178223,544.329285 1043.051758,544.279724 1033.463989,544.176025 
z"/>
<path fill="#3AA9C2" opacity="1.000000" stroke="none" 
	d="
M1152.000000,710.867188 
	C1163.495605,710.869080 1174.491455,710.821106 1185.486572,710.894714 
	C1191.304810,710.933655 1194.863525,714.060120 1194.931274,718.916687 
	C1194.999390,723.801636 1191.451294,727.047607 1185.642456,727.061829 
	C1164.151001,727.114258 1142.659058,727.107056 1121.167603,727.050720 
	C1115.745850,727.036560 1112.316040,723.815674 1112.259033,719.023926 
	C1112.200562,714.103088 1115.770264,710.902527 1121.511719,710.878479 
	C1131.507690,710.836487 1141.503906,710.867432 1152.000000,710.867188 
z"/>
<path fill="#43BBB1" opacity="1.000000" stroke="none" 
	d="
M1005.410156,544.230408 
	C1007.113770,544.006958 1009.251526,543.873718 1011.711304,543.932312 
	C1009.970276,544.189697 1007.907288,544.255127 1005.410156,544.230408 
z"/>
<path fill="#49BD9E" opacity="1.000000" stroke="none" 
	d="
M943.246094,361.485046 
	C943.881531,363.010925 944.873291,364.986969 944.918762,366.984589 
	C945.104065,375.120392 944.990845,383.262878 945.009338,391.402802 
	C945.012695,392.895569 944.685425,394.592560 945.273804,395.833588 
	C946.191772,397.770142 947.761963,399.397461 949.055786,401.155823 
	C950.136353,399.617096 951.513916,398.207733 952.249390,396.518738 
	C957.140015,385.288788 962.074158,374.070892 966.598145,362.691650 
	C968.290710,358.434265 968.761963,353.705933 970.116943,349.292664 
	C970.684265,347.445007 972.101624,345.858307 973.485046,344.074860 
	C973.902039,378.460602 973.969543,412.924408 974.029297,447.388245 
	C974.051208,460.043182 973.601562,472.722443 974.279602,485.341583 
	C974.569580,490.738556 977.191956,496.010193 978.865051,501.675018 
	C976.277039,504.421234 973.504822,506.755371 970.908020,509.270508 
	C969.427673,510.704376 968.212158,512.416565 966.915283,514.033813 
	C964.695679,516.801758 961.559509,519.279968 960.511108,522.444031 
	C958.651001,528.057617 958.602295,534.264771 956.802185,539.906616 
	C954.832642,546.079529 951.737366,551.893311 949.132690,557.863586 
	C948.632202,557.950928 948.131653,558.038208 947.631165,558.125549 
	C946.758118,554.986755 945.608215,551.893494 945.081970,548.697632 
	C944.420532,544.681335 944.269775,540.581055 943.625244,536.273926 
	C943.296814,532.053162 943.241760,528.075378 943.531616,523.351807 
	C943.695374,520.078430 943.514160,517.550781 943.333008,515.023193 
	C943.270813,499.569519 943.164490,484.115906 943.155334,468.662201 
	C943.134277,433.089844 943.160461,397.517487 943.246094,361.485046 
z"/>
<path fill="#46BCA5" opacity="1.000000" stroke="none" 
	d="
M1058.186646,323.946350 
	C1056.912476,322.772186 1055.638184,321.598022 1054.284424,319.801575 
	C1054.724976,318.589386 1055.391235,317.409973 1055.743286,317.497284 
	C1061.817017,319.004120 1065.961792,315.572052 1070.298950,312.256714 
	C1071.493042,311.343933 1073.420166,311.389984 1075.010864,310.996063 
	C1081.898438,317.505066 1088.897095,323.901733 1095.634766,330.562378 
	C1100.153076,335.029083 1099.980347,342.243011 1095.398926,346.717651 
	C1078.129517,363.584839 1060.805420,380.395996 1043.461182,397.186279 
	C1038.814819,401.684265 1032.051392,401.743774 1027.762451,397.497589 
	C1023.602234,393.378876 1023.749573,387.114563 1028.478516,382.413971 
	C1041.113037,369.854950 1053.861694,357.410492 1066.594116,344.950226 
	C1068.608521,342.978851 1070.774170,341.161957 1073.088745,339.076416 
	C1068.544556,334.529816 1064.476562,330.459656 1060.108154,325.858765 
	C1059.267334,324.867462 1058.726929,324.406921 1058.186646,323.946350 
z"/>
<path fill="#3FB4B4" opacity="1.000000" stroke="none" 
	d="
M1141.000000,400.081421 
	C1134.175415,400.077209 1127.850708,400.110413 1121.526489,400.062103 
	C1115.793213,400.018280 1112.202637,396.797577 1112.278320,391.878723 
	C1112.351440,387.131195 1115.795166,383.919678 1121.208374,383.905243 
	C1142.678589,383.847992 1164.149048,383.847290 1185.619263,383.895142 
	C1191.410278,383.908081 1194.904297,387.086853 1194.902100,392.021301 
	C1194.900024,396.805115 1191.297485,399.964264 1185.439209,399.999451 
	C1170.793091,400.087402 1156.146484,400.062805 1141.000000,400.081421 
z"/>
<path fill="#49BD9E" opacity="1.000000" stroke="none" 
	d="
M1074.865234,310.694092 
	C1073.420166,311.389984 1071.493042,311.343933 1070.298950,312.256714 
	C1065.961792,315.572052 1061.817017,319.004120 1055.743286,317.497284 
	C1055.391235,317.409973 1054.724976,318.589386 1054.125000,319.517426 
	C1045.228516,311.510559 1036.316040,303.263794 1027.636963,294.778412 
	C1023.400879,290.636932 1023.841858,284.194214 1028.173218,280.055176 
	C1032.542358,275.880066 1039.140991,276.081116 1043.889404,280.641815 
	C1054.189209,290.534546 1064.445557,300.472595 1074.865234,310.694092 
z"/>
<path fill="#49BD9E" opacity="1.000000" stroke="none" 
	d="
M981.237732,504.571594 
	C980.620300,504.130920 979.871704,503.406799 979.055115,502.355530 
	C979.693604,502.781647 980.400146,503.534882 981.237732,504.571594 
z"/>
<path fill="#49BD9E" opacity="1.000000" stroke="none" 
	d="
M1058.304199,324.189392 
	C1058.726929,324.406921 1059.267334,324.867462 1059.930298,325.570496 
	C1059.509277,325.352783 1058.965454,324.892578 1058.304199,324.189392 
z"/>
<path fill="#6DCE5F" opacity="1.000000" stroke="none" 
	d="
M667.982422,341.009827 
	C676.988647,349.391724 686.137695,357.627106 694.946777,366.211426 
	C700.112061,371.244934 699.910645,380.126953 694.747681,385.181366 
	C673.458679,406.022614 652.122742,426.816650 630.692444,447.512512 
	C625.188232,452.828094 616.257080,452.453735 611.352112,447.146851 
	C606.514771,441.913055 607.172791,433.963196 612.858032,428.390289 
	C629.260620,412.312073 645.637512,396.207611 662.062378,380.152252 
	C663.359741,378.884094 664.949646,377.915405 666.910034,376.421600 
	C660.500122,370.298706 654.893738,364.943268 649.296692,358.998627 
	C655.319946,352.866669 665.105042,351.340973 667.211914,341.613922 
	C667.265137,341.368439 667.716675,341.209259 667.982422,341.009827 
z"/>
<path fill="#64CB73" opacity="1.000000" stroke="none" 
	d="
M816.033386,444.741455 
	C813.869385,448.571289 810.900391,450.256256 806.843323,450.253998 
	C779.680725,450.238831 752.517944,450.322693 725.355591,450.253265 
	C719.301208,450.237793 715.091492,445.870636 715.172852,440.266510 
	C715.254456,434.644836 719.524292,430.637573 725.673706,430.629303 
	C752.336243,430.593414 778.998779,430.573334 805.661194,430.628204 
	C814.464661,430.646332 818.200256,435.649200 816.033386,444.741455 
z"/>
<path fill="#76D451" opacity="1.000000" stroke="none" 
	d="
M667.836548,340.710266 
	C667.716675,341.209259 667.265137,341.368439 667.211914,341.613922 
	C665.105042,351.340973 655.319946,352.866669 649.144287,358.700928 
	C636.541565,347.235840 624.021606,335.561218 611.697998,323.682922 
	C606.679932,318.846191 606.830078,310.473114 611.562561,305.638519 
	C616.929871,300.155426 625.498535,300.077881 631.280334,305.581512 
	C643.445496,317.161438 655.557129,328.797607 667.836548,340.710266 
z"/>
<path fill="#45BCAB" opacity="1.000000" stroke="none" 
	d="
M943.257812,515.434814 
	C943.514160,517.550781 943.695374,520.078430 943.616089,522.921021 
	C943.297913,520.772827 943.240295,518.309631 943.257812,515.434814 
z"/>
<path fill="#3FB4B4" opacity="1.000000" stroke="none" 
	d="
M943.286865,686.424805 
	C943.527161,687.551025 943.684082,689.085449 943.599182,690.802002 
	C943.306152,689.600403 943.254822,688.216675 943.286865,686.424805 
z"/>
</svg>