<svg xmlns="http://www.w3.org/2000/svg" version="1.1" width="872" height="872" viewBox="525.1 100.9 872 872">

<path fill="#63E969" opacity="1.000000" stroke="none" 
	d="
M549.968018,535.983704 
	C549.897400,510.513611 549.749695,485.043427 549.772461,459.573395 
	C549.816956,409.789001 549.797546,360.003632 550.134888,310.220856 
	C550.270752,290.169037 552.865662,270.383453 559.681763,251.349396 
	C569.864380,222.914368 587.462769,199.900894 611.641907,182.113770 
	C620.175537,175.836060 629.941101,171.233078 639.729309,166.105835 
	C647.843506,171.771393 647.726501,171.675598 641.835144,178.872055 
	C640.553040,180.438217 639.441101,183.271652 639.975708,184.982361 
	C641.485962,189.814972 639.559326,193.018555 636.914490,196.769608 
	C630.910217,205.285385 623.133789,212.956894 622.677673,224.463287 
	C622.585388,226.791245 621.238220,229.239197 619.962769,231.321320 
	C614.195557,240.735855 608.239014,250.034256 602.378113,259.391663 
	C601.943176,260.086060 601.666748,260.897583 601.415344,261.686157 
	C599.670898,267.156738 598.249634,272.751526 596.167603,278.089142 
	C590.879700,291.645233 593.308960,306.028778 591.549072,319.961456 
	C590.669678,326.923523 590.997498,333.751129 586.200500,339.588348 
	C584.938232,341.124390 584.545898,343.479645 584.069214,345.531860 
	C583.399353,348.415955 583.002258,351.364868 582.527222,354.292358 
	C581.675354,359.541962 580.269653,364.786224 580.179199,370.051331 
	C580.086548,375.444336 577.834839,379.437592 575.008606,383.684235 
	C571.922180,388.321838 569.141602,393.324615 567.216187,398.533600 
	C564.644409,405.491241 563.099182,412.823364 560.939514,419.942017 
	C560.448914,421.559357 559.245911,422.960632 557.689148,425.630219 
	C552.179138,415.330536 554.415466,404.929169 552.354309,395.408112 
	C551.910583,395.432861 551.466919,395.457581 551.023193,395.482330 
	C551.023193,422.317688 551.023193,449.153076 551.015930,476.458191 
	C550.992432,496.613922 550.976257,516.299866 550.712036,535.986084 
	C550.464050,535.986328 549.968018,535.983704 549.968018,535.983704 
z"/>
<path fill="#576DDB" opacity="1.000000" stroke="none" 
	d="
M1371.984497,695.992249 
	C1371.754639,731.417786 1374.472656,766.999939 1367.984863,802.135803 
	C1357.198853,860.550476 1307.697266,908.466858 1248.547852,917.742493 
	C1248.784302,916.773865 1249.189453,915.867615 1249.864258,915.567017 
	C1257.185913,912.306946 1260.398804,906.144104 1262.861328,898.916809 
	C1263.986816,895.614197 1267.436279,893.158020 1269.543579,890.118164 
	C1271.255859,887.648010 1272.628784,884.925659 1273.992676,882.234253 
	C1276.797241,876.700317 1278.635498,870.409241 1282.462280,865.731140 
	C1286.859009,860.356262 1289.704834,855.189392 1288.765869,847.972168 
	C1305.162231,832.796814 1316.338867,814.871460 1320.486450,793.087769 
	C1322.311279,783.503967 1323.010986,773.705811 1324.569824,763.962646 
	C1326.706299,762.151917 1328.663574,760.519348 1330.228271,758.571533 
	C1331.442749,757.059875 1331.738159,754.548523 1333.181763,753.526062 
	C1340.678223,748.217468 1342.572876,739.781555 1345.831909,732.066345 
	C1349.615967,723.108276 1351.687378,713.315125 1358.555664,705.837280 
	C1359.200073,705.135681 1359.571411,704.130249 1359.908081,703.207031 
	C1362.700562,695.549194 1363.659424,694.964172 1371.984497,695.992249 
z"/>
<path fill="#5DE56E" opacity="1.000000" stroke="none" 
	d="
M551.023193,475.988434 
	C551.023193,449.153076 551.023193,422.317688 551.023193,395.482330 
	C551.466919,395.457581 551.910583,395.432861 552.354309,395.408112 
	C554.415466,404.929169 552.179138,415.330536 557.689148,425.630219 
	C559.245911,422.960632 560.448914,421.559357 560.939514,419.942017 
	C563.099182,412.823364 564.644409,405.491241 567.216187,398.533600 
	C569.141602,393.324615 571.922180,388.321838 575.008606,383.684235 
	C577.834839,379.437592 580.086548,375.444336 580.179199,370.051331 
	C580.269653,364.786224 581.675354,359.541962 582.527222,354.292358 
	C583.002258,351.364868 583.399353,348.415955 584.069214,345.531860 
	C584.545898,343.479645 584.938232,341.124390 586.200500,339.588348 
	C590.997498,333.751129 590.669678,326.923523 591.549072,319.961456 
	C593.308960,306.028778 590.879700,291.645233 596.167603,278.089142 
	C598.249634,272.751526 599.670898,267.156738 601.415344,261.686157 
	C601.666748,260.897583 601.943176,260.086060 602.378113,259.391663 
	C608.239014,250.034256 614.195557,240.735855 619.962769,231.321320 
	C621.238220,229.239197 622.585388,226.791245 622.677673,224.463287 
	C623.133789,212.956894 630.910217,205.285385 636.914490,196.769608 
	C639.559326,193.018555 641.485962,189.814972 639.975708,184.982361 
	C639.441101,183.271652 640.553040,180.438217 641.835144,178.872055 
	C647.726501,171.675598 647.843506,171.771393 640.105713,166.058060 
	C651.716003,162.198853 663.458618,158.338745 675.388428,155.187225 
	C680.785767,153.761383 686.555176,153.743820 692.522278,153.458954 
	C692.584045,159.401840 696.937500,155.992905 699.000000,157.000305 
	C699.000000,157.000000 699.000000,156.999390 699.040039,157.405243 
	C699.309265,161.242294 702.021545,165.397614 697.674255,167.713898 
	C693.344238,170.021042 692.045959,173.312866 691.866943,177.802826 
	C691.799988,179.482803 690.515076,181.084763 689.968506,182.781265 
	C688.834595,186.300690 687.843201,189.865753 686.752869,193.399612 
	C686.198242,195.196960 685.734863,197.056900 684.899719,198.722824 
	C684.178284,200.161697 682.989197,201.366058 681.670227,202.795685 
	C639.703918,212.009750 613.218262,237.233734 602.008972,278.203217 
	C596.876404,296.962555 597.337830,316.375427 597.194641,335.632721 
	C596.985474,363.750122 597.007080,391.869232 596.562927,420.035614 
	C595.220825,420.866119 593.631042,421.485901 593.373718,422.458191 
	C591.976135,427.740814 589.493225,432.283447 586.763733,437.080017 
	C580.793274,447.572021 573.198975,457.381104 570.166931,469.423553 
	C570.011475,470.040924 569.386169,470.531158 569.186584,471.147583 
	C566.917664,478.155212 564.685364,485.174652 562.451233,492.193481 
	C561.018066,496.695770 559.598145,501.202240 558.172241,505.706818 
	C557.493469,505.610870 556.814697,505.514893 556.135864,505.418945 
	C555.497803,503.475281 554.461243,501.563324 554.303528,499.581451 
	C553.961121,495.277954 554.423828,490.893494 553.881348,486.628082 
	C553.422363,483.018738 552.012329,479.530365 551.023193,475.988434 
z"/>
<path fill="#3A9BE0" opacity="1.000000" stroke="none" 
	d="
M1371.996582,371.004822 
	C1372.057007,399.363922 1372.117432,427.723053 1371.747437,456.465454 
	C1368.898071,456.954742 1365.414551,456.090454 1364.264160,457.352600 
	C1361.084106,460.841675 1358.771606,465.154755 1356.311646,469.259277 
	C1352.590698,475.468109 1349.237183,481.904541 1345.354858,488.007324 
	C1341.141235,494.631073 1333.187500,498.980682 1333.236938,508.190613 
	C1333.239258,508.623077 1332.831909,509.100220 1332.525635,509.485443 
	C1329.140991,513.743958 1325.387939,517.758545 1322.420166,522.288330 
	C1317.500488,529.797485 1310.769287,536.856628 1313.589844,547.075195 
	C1308.242676,545.541687 1303.318359,543.333191 1298.234375,542.867126 
	C1289.866577,542.100098 1281.395386,542.461182 1272.880371,542.155151 
	C1272.527954,541.640259 1272.262817,541.316956 1272.158813,540.692932 
	C1274.197510,539.462341 1276.075073,538.532532 1277.137817,538.006226 
	C1278.853027,530.935303 1280.421631,524.468872 1281.972900,517.702148 
	C1281.942993,517.201843 1281.930542,517.001709 1282.314209,516.685547 
	C1288.528564,516.502747 1294.353271,516.584229 1300.163452,516.331482 
	C1307.426636,516.015442 1314.126587,513.500061 1318.487427,507.710968 
	C1322.885010,501.873169 1324.720337,494.886169 1324.656494,487.285706 
	C1324.484863,466.846710 1324.750977,446.403992 1325.157959,425.780029 
	C1326.575439,422.931427 1328.669434,420.234009 1328.585815,417.605896 
	C1328.376953,411.036743 1332.408569,407.100433 1336.437988,403.298553 
	C1345.106323,395.119904 1358.047363,377.108887 1362.612671,366.244873 
	C1363.068359,365.160583 1364.317627,364.409821 1365.198486,363.504242 
	C1366.153809,364.449982 1367.158569,365.351562 1368.053101,366.351746 
	C1369.407837,367.866760 1370.685791,369.450378 1371.996582,371.004822 
z"/>
<path fill="#38D3A5" opacity="1.000000" stroke="none" 
	d="
M975.023071,152.120544 
	C994.378479,152.061218 1013.733826,152.001877 1033.453369,152.345139 
	C1031.108521,156.367737 1028.369263,159.965561 1025.700806,163.615204 
	C1023.791931,166.225906 1021.770996,168.789459 1020.191589,171.594543 
	C1019.073303,173.580566 1017.470825,176.316528 1018.054138,178.057999 
	C1020.355774,184.929764 1018.780640,190.625122 1014.447876,196.000092 
	C1013.772461,196.837997 1013.532593,198.027023 1013.094360,199.321777 
	C1013.108765,199.768677 1013.120239,199.947510 1012.677002,200.226837 
	C1009.436707,200.260193 1006.651001,200.193054 1003.712708,199.995041 
	C1003.085999,199.948929 1002.611938,200.033691 1001.720825,200.214874 
	C984.204468,200.875305 974.042908,211.333481 973.972717,228.398468 
	C973.926392,239.658508 973.835449,250.918365 973.341919,262.184906 
	C971.690735,263.315704 969.687683,264.252625 969.362976,265.595398 
	C967.623718,272.788818 966.440430,280.115570 964.756287,287.324097 
	C964.228577,289.582550 963.285522,292.534668 961.572449,293.551178 
	C958.556519,295.340790 958.362976,297.678162 957.884399,300.537964 
	C957.480164,302.953918 956.536621,306.801636 955.031677,307.234528 
	C949.902039,308.710144 950.164368,312.227570 949.922974,316.147430 
	C949.719299,319.455719 948.834229,322.722076 948.172119,325.543732 
	C948.071472,293.257080 948.265564,261.430756 947.838623,229.612762 
	C947.756897,223.516830 945.231323,217.453659 944.019287,211.024506 
	C945.351074,210.127563 946.513123,209.087418 947.639587,209.124603 
	C951.617432,209.255905 954.224609,207.953568 955.645569,203.957596 
	C956.830383,200.625732 958.267700,197.208847 960.372009,194.416626 
	C964.266357,189.249313 964.138611,182.643936 962.909058,177.920822 
	C960.455750,168.496323 967.971497,163.736511 970.150330,156.668289 
	C970.718018,154.826675 973.343018,153.619247 975.023071,152.120544 
z"/>
<path fill="#29CBBE" opacity="1.000000" stroke="none" 
	d="
M1103.021362,152.103699 
	C1135.709961,152.077805 1168.398682,152.051910 1201.504639,152.457275 
	C1198.466675,156.465088 1195.397705,160.561752 1191.458984,163.487396 
	C1186.453735,167.205215 1186.118896,167.157028 1190.344849,170.446198 
	C1189.992920,178.070038 1187.253052,184.186157 1179.512329,187.822632 
	C1182.062012,189.330872 1183.635254,189.964066 1184.828735,191.024689 
	C1188.054443,193.891556 1193.313232,194.751358 1193.545410,200.249695 
	C1178.137695,200.343765 1163.191650,200.370285 1148.245483,200.338287 
	C1128.490479,200.295990 1108.735352,200.207840 1088.989258,199.689850 
	C1089.493652,197.523468 1089.531738,195.443375 1090.559692,194.149811 
	C1096.457275,186.728592 1097.706299,178.401688 1096.256714,169.317215 
	C1096.018188,167.822678 1096.559204,166.050766 1097.186401,164.600037 
	C1099.009888,160.382050 1101.060059,156.262115 1103.021362,152.103699 
z"/>
<path fill="#2AC5C9" opacity="1.000000" stroke="none" 
	d="
M1194.006958,200.156082 
	C1193.313232,194.751358 1188.054443,193.891556 1184.828735,191.024689 
	C1183.635254,189.964066 1182.062012,189.330872 1179.512329,187.822632 
	C1187.253052,184.186157 1189.992920,178.070038 1190.344849,170.446198 
	C1186.118896,167.157028 1186.453735,167.205215 1191.458984,163.487396 
	C1195.397705,160.561752 1198.466675,156.465088 1201.967285,152.542175 
	C1231.836548,152.041245 1261.219727,154.253799 1288.390747,168.311569 
	C1290.832520,169.574966 1293.244385,170.896149 1295.714844,172.795151 
	C1292.737061,174.805954 1288.923828,175.495346 1286.860718,177.771271 
	C1282.878296,182.164337 1279.837036,187.421921 1276.532104,192.405060 
	C1276.051147,193.130280 1275.934570,194.431213 1276.219238,195.273270 
	C1277.557617,199.234558 1275.507202,201.674774 1272.555908,203.568588 
	C1268.503906,206.168716 1269.236816,207.783646 1272.927856,210.265121 
	C1274.901001,211.591553 1275.679932,214.694260 1276.661987,216.907684 
	C1267.732300,212.942230 1259.455688,207.854019 1250.463135,205.498047 
	C1239.624268,202.658371 1228.177856,202.138611 1216.811157,200.356644 
	C1214.751587,200.186981 1212.875366,200.275269 1210.587891,200.461502 
	C1204.786743,200.425003 1199.396851,200.290543 1194.006958,200.156082 
z"/>
<path fill="#4FE081" opacity="1.000000" stroke="none" 
	d="
M549.886230,536.447876 
	C549.968018,535.983704 550.464050,535.986328 550.719971,536.456299 
	C549.851624,558.739197 552.372375,580.182495 557.197266,601.509033 
	C558.581238,599.853088 558.829773,598.124756 559.408142,596.514893 
	C562.362854,588.290344 565.055542,579.945435 568.534119,571.944458 
	C570.885864,566.535278 574.786560,561.811218 577.276184,556.447449 
	C580.738708,548.987488 582.728699,540.747620 586.841125,533.714111 
	C590.642212,527.213074 592.440430,520.451538 593.984985,513.356812 
	C594.262390,512.082520 595.907837,511.106049 597.005188,510.455017 
	C597.092163,520.272339 597.115173,529.626831 597.094849,538.981201 
	C597.055176,557.287231 596.991333,575.593262 596.539795,594.016113 
	C595.096191,596.231201 593.434814,598.239075 593.110779,600.443542 
	C591.718140,609.919739 591.772339,619.686035 586.165100,628.137024 
	C584.540100,630.586121 583.137085,633.284241 582.185364,636.057983 
	C579.960938,642.541138 578.805603,649.491821 575.868774,655.605469 
	C571.827576,664.018311 566.560181,671.844177 561.777710,679.897583 
	C560.406067,682.207214 558.894897,684.434021 557.447754,686.698792 
	C556.860168,686.640198 556.272644,686.581604 555.685059,686.523010 
	C554.494263,681.805237 553.303467,677.087524 552.112671,672.369812 
	C551.748169,672.402588 551.383606,672.435364 551.019104,672.468140 
	C551.019104,697.312561 551.019104,722.156982 551.013611,747.410400 
	C550.694763,749.876892 550.381409,751.934387 550.068054,753.991943 
	C549.960449,734.200562 549.771301,714.409241 549.761169,694.617798 
	C549.734314,642.049194 549.784729,589.480591 549.886230,536.447876 
z"/>
<path fill="#34AADF" opacity="1.000000" stroke="none" 
	d="
M1372.080444,370.542236 
	C1370.685791,369.450378 1369.407837,367.866760 1368.053101,366.351746 
	C1367.158569,365.351562 1366.153809,364.449982 1365.198486,363.504242 
	C1364.317627,364.409821 1363.068359,365.160583 1362.612671,366.244873 
	C1358.047363,377.108887 1345.106323,395.119904 1336.437988,403.298553 
	C1332.408569,407.100433 1328.376953,411.036743 1328.585815,417.605896 
	C1328.669434,420.234009 1326.575439,422.931427 1325.062012,425.321777 
	C1324.718628,402.370697 1324.785889,379.695099 1325.074097,356.666809 
	C1325.150635,349.531647 1325.006470,342.749146 1324.763672,335.527802 
	C1324.716675,332.396973 1324.768066,329.705017 1325.148438,326.892456 
	C1327.003906,324.280792 1328.501953,321.771881 1330.062500,319.302307 
	C1333.624878,313.665161 1336.354492,307.166656 1340.993042,302.620697 
	C1348.606445,295.159180 1354.725464,287.079651 1358.150146,277.017578 
	C1359.711670,272.429749 1362.010742,269.232880 1367.560059,270.917725 
	C1368.995972,283.973358 1371.187012,296.999878 1371.691650,310.091400 
	C1372.461670,330.063873 1372.065552,350.081299 1372.080444,370.542236 
z"/>
<path fill="#29C9C5" opacity="1.000000" stroke="none" 
	d="
M834.981995,921.354980 
	C822.958984,921.420227 810.936035,921.485352 798.194336,921.197021 
	C795.365173,920.575073 793.255493,920.080139 791.144165,920.073120 
	C771.012512,920.006409 750.880615,920.034790 730.748840,919.994324 
	C728.831421,919.990479 726.914551,919.704529 725.193054,919.565308 
	C723.726196,910.227783 726.380615,902.797791 732.109131,896.118774 
	C737.544617,889.781555 739.399048,882.409607 737.358643,874.137939 
	C773.182556,874.116882 808.594604,874.167114 843.952271,874.553955 
	C841.617188,876.646912 839.358398,878.432617 837.050903,880.152954 
	C833.763245,882.603943 829.777222,884.473755 827.293701,887.560669 
	C823.939758,891.729553 821.670776,896.785889 819.040771,901.519592 
	C814.217163,910.201233 819.381836,919.329468 829.368225,920.036072 
	C831.261108,920.169922 833.111816,920.900024 834.981995,921.354980 
z"/>
<path fill="#4192E3" opacity="1.000000" stroke="none" 
	d="
M1313.940918,547.182922 
	C1310.769287,536.856628 1317.500488,529.797485 1322.420166,522.288330 
	C1325.387939,517.758545 1329.140991,513.743958 1332.525635,509.485443 
	C1332.831909,509.100220 1333.239258,508.623077 1333.236938,508.190613 
	C1333.187500,498.980682 1341.141235,494.631073 1345.354858,488.007324 
	C1349.237183,481.904541 1352.590698,475.468109 1356.311646,469.259277 
	C1358.771606,465.154755 1361.084106,460.841675 1364.264160,457.352600 
	C1365.414551,456.090454 1368.898071,456.954742 1371.660156,456.927429 
	C1372.059570,487.697296 1372.115601,518.388428 1371.761963,549.446655 
	C1370.121460,548.736511 1369.048218,547.248596 1367.614990,546.699341 
	C1366.220947,546.165039 1363.530762,545.944580 1363.003418,546.699524 
	C1358.589844,553.018127 1354.601318,559.631287 1350.372192,566.081787 
	C1345.277222,573.852417 1342.377563,583.394531 1332.915161,587.696167 
	C1331.818359,588.194763 1330.852661,589.428467 1330.280273,590.552612 
	C1328.364868,594.314026 1326.655273,598.180298 1324.770874,601.545776 
	C1324.384155,587.631958 1324.093384,574.178833 1323.810913,560.353271 
	C1323.270386,558.991821 1322.721558,558.002747 1322.046509,556.849609 
	C1321.920288,556.685486 1321.896362,556.272034 1321.785156,556.058594 
	C1321.515625,555.565369 1321.337036,555.299011 1320.925293,554.851318 
	C1320.453003,554.153320 1320.193604,553.650146 1319.847900,552.862427 
	C1319.216064,552.039307 1318.670532,551.500732 1317.850098,550.804077 
	C1316.363892,549.491638 1315.152344,548.337280 1313.940918,547.182922 
z"/>
<path fill="#2EB4D8" opacity="1.000000" stroke="none" 
	d="
M961.968140,921.304199 
	C950.274902,921.382751 938.581665,921.461426 926.171326,921.175659 
	C923.676453,920.542114 921.902161,920.071838 920.120178,920.040527 
	C914.126343,919.935181 908.126709,920.100281 902.135193,919.940857 
	C897.325073,919.812866 891.915833,915.792297 892.772522,913.125732 
	C894.901489,906.498840 896.670593,899.677124 899.599426,893.407898 
	C902.767212,886.627258 906.016968,879.427856 914.720581,877.534607 
	C915.999756,877.256470 916.928589,875.367981 918.405518,874.141907 
	C935.345276,873.787354 944.678223,866.987610 947.571899,851.929810 
	C948.749146,845.803955 948.087646,839.324829 948.640198,832.986572 
	C953.545959,832.663269 952.500549,829.262146 953.009949,826.370117 
	C953.848389,821.609924 954.909485,816.801392 956.648804,812.312378 
	C958.358398,807.900085 961.026123,803.858521 963.280640,799.658203 
	C963.790527,798.708313 964.331238,797.775024 964.436279,797.587341 
	C967.792664,799.523865 970.791626,801.254150 973.872192,803.447754 
	C973.956726,808.715210 973.959595,813.519226 973.962463,818.323303 
	C973.967407,826.606506 974.578735,834.950378 973.758057,843.151001 
	C973.234985,848.377441 972.887329,853.138733 975.227661,857.899658 
	C972.946350,861.399536 971.077026,864.799316 969.068726,868.115051 
	C968.121887,869.678467 966.914185,871.084717 965.814148,872.554199 
	C964.542725,874.252747 963.200745,875.901733 961.992981,877.644043 
	C958.887451,882.124329 960.164673,888.781677 954.687561,892.181824 
	C953.760925,892.756897 953.597656,894.491638 952.965576,895.625793 
	C951.691101,897.912598 950.876648,901.020813 948.910156,902.247131 
	C943.767700,905.453857 944.920959,910.325867 946.663086,913.595398 
	C948.223511,916.524048 952.565552,918.126160 955.904602,919.888733 
	C957.680176,920.825867 959.931519,920.861572 961.968140,921.304199 
z"/>
<path fill="#4E7ADF" opacity="1.000000" stroke="none" 
	d="
M1372.063599,695.530151 
	C1363.659424,694.964172 1362.700562,695.549194 1359.908081,703.207031 
	C1359.571411,704.130249 1359.200073,705.135681 1358.555664,705.837280 
	C1351.687378,713.315125 1349.615967,723.108276 1345.831909,732.066345 
	C1342.572876,739.781555 1340.678223,748.217468 1333.181763,753.526062 
	C1331.738159,754.548523 1331.442749,757.059875 1330.228271,758.571533 
	C1328.663574,760.519348 1326.706299,762.151917 1324.512085,763.496948 
	C1324.283936,750.469360 1324.516235,737.865540 1324.625977,725.260620 
	C1324.763062,709.511108 1324.799438,693.760742 1325.224121,677.922058 
	C1326.483398,677.153259 1327.920654,676.655945 1328.232300,675.765076 
	C1331.657593,665.970459 1341.020020,660.207825 1344.398071,649.891357 
	C1348.002930,638.882935 1354.889648,628.958740 1360.240356,618.508423 
	C1363.180298,612.766785 1366.696533,611.018127 1371.990112,612.999878 
	C1372.040894,640.355957 1372.091797,667.712036 1372.063599,695.530151 
z"/>
<path fill="#46DA92" opacity="1.000000" stroke="none" 
	d="
M549.996704,754.456360 
	C550.381409,751.934387 550.694763,749.876892 551.331055,747.600586 
	C552.117249,748.906921 552.675049,750.410706 553.025757,751.961304 
	C554.016907,756.343506 554.923157,760.744995 555.862915,765.138855 
	C556.467102,765.177795 557.071228,765.216736 557.675415,765.255676 
	C561.138367,758.751770 564.815125,752.350708 568.008789,745.717163 
	C571.778748,737.886658 574.910339,729.747314 578.723145,721.939331 
	C582.986877,713.207947 587.597168,704.638611 592.313354,696.141235 
	C593.263123,694.429993 595.363037,693.357117 597.016968,692.452637 
	C597.743652,722.603271 598.386047,752.291260 598.683899,781.912537 
	C596.569275,782.523071 593.694824,782.764648 593.225342,783.954834 
	C591.448303,788.460083 590.371765,793.252991 589.177673,797.974792 
	C586.038269,810.388733 581.190979,822.087646 574.975891,833.275146 
	C573.377136,836.152954 572.174255,835.881165 570.158752,833.901245 
	C567.929443,831.711426 565.827820,831.178955 564.888916,835.116577 
	C556.665955,818.834167 552.649963,801.403748 551.190063,783.363647 
	C550.425049,773.910461 550.325439,764.403442 549.996704,754.456360 
z"/>
<path fill="#2BBFD1" opacity="1.000000" stroke="none" 
	d="
M918.019531,874.224487 
	C916.928589,875.367981 915.999756,877.256470 914.720581,877.534607 
	C906.016968,879.427856 902.767212,886.627258 899.599426,893.407898 
	C896.670593,899.677124 894.901489,906.498840 892.772522,913.125732 
	C891.915833,915.792297 897.325073,919.812866 902.135193,919.940857 
	C908.126709,920.100281 914.126343,919.935181 920.120178,920.040527 
	C921.902161,920.071838 923.676453,920.542114 925.716187,921.053101 
	C915.035767,921.407715 904.093628,921.593567 893.151001,921.617310 
	C874.066223,921.658752 854.981201,921.600403 835.439148,921.469421 
	C833.111816,920.900024 831.261108,920.169922 829.368225,920.036072 
	C819.381836,919.329468 814.217163,910.201233 819.040771,901.519592 
	C821.670776,896.785889 823.939758,891.729553 827.293701,887.560669 
	C829.777222,884.473755 833.763245,882.603943 837.050903,880.152954 
	C839.358398,878.432617 841.617188,876.646912 844.414551,874.476074 
	C869.294006,874.115906 893.656799,874.170166 918.019531,874.224487 
z"/>
<path fill="#2FCBB3" opacity="1.000000" stroke="none" 
	d="
M736.946899,874.209229 
	C739.399048,882.409607 737.544617,889.781555 732.109131,896.118774 
	C726.380615,902.797791 723.726196,910.227783 725.193054,919.565308 
	C726.914551,919.704529 728.831421,919.990479 730.748840,919.994324 
	C750.880615,920.034790 771.012512,920.006409 791.144165,920.073120 
	C793.255493,920.080139 795.365173,920.575073 797.737793,921.086731 
	C796.012573,921.438782 794.024597,921.652954 792.038025,921.640991 
	C761.729553,921.458923 731.402039,921.814209 701.121582,920.788635 
	C687.263000,920.319275 673.496826,917.118774 659.193848,914.712524 
	C657.925964,913.664734 657.150696,913.064026 656.380371,912.457275 
	C651.971619,908.984619 652.203125,906.804688 656.191650,902.935425 
	C658.307434,900.883118 659.847717,897.898376 660.780884,895.050476 
	C661.999390,891.331787 661.679199,887.027100 663.248169,883.524109 
	C665.604919,878.261841 667.654419,873.225952 666.385620,867.455933 
	C675.864197,869.311279 684.907715,871.950317 694.106445,872.709839 
	C708.330872,873.884399 722.661377,873.774475 736.946899,874.209229 
z"/>
<path fill="#32D0B0" opacity="1.000000" stroke="none" 
	d="
M1102.556396,152.025208 
	C1101.060059,156.262115 1099.009888,160.382050 1097.186401,164.600037 
	C1096.559204,166.050766 1096.018188,167.822678 1096.256714,169.317215 
	C1097.706299,178.401688 1096.457275,186.728592 1090.559692,194.149811 
	C1089.531738,195.443375 1089.493652,197.523468 1088.594482,199.787628 
	C1084.117676,200.268112 1080.044678,200.201263 1075.625244,199.913315 
	C1068.869507,199.835403 1062.460327,199.978592 1055.704834,200.214752 
	C1054.887939,200.247131 1054.417603,200.186523 1053.602051,199.907501 
	C1051.467896,199.465622 1049.679443,199.056168 1047.889526,199.048889 
	C1036.290283,199.001663 1024.690796,199.042023 1013.091309,199.053680 
	C1013.532593,198.027023 1013.772461,196.837997 1014.447876,196.000092 
	C1018.780640,190.625122 1020.355774,184.929764 1018.054138,178.057999 
	C1017.470825,176.316528 1019.073303,173.580566 1020.191589,171.594543 
	C1021.770996,168.789459 1023.791931,166.225906 1025.700806,163.615204 
	C1028.369263,159.965561 1031.108521,156.367737 1033.916992,152.425629 
	C1056.708130,152.051239 1079.399658,151.998962 1102.556396,152.025208 
z"/>
<path fill="#4784E1" opacity="1.000000" stroke="none" 
	d="
M1372.073486,612.537598 
	C1366.696533,611.018127 1363.180298,612.766785 1360.240356,618.508423 
	C1354.889648,628.958740 1348.002930,638.882935 1344.398071,649.891357 
	C1341.020020,660.207825 1331.657593,665.970459 1328.232300,675.765076 
	C1327.920654,676.655945 1326.483398,677.153259 1325.130371,677.460327 
	C1324.752319,662.065613 1324.812744,647.043884 1325.091064,631.669189 
	C1325.167114,626.201172 1325.025269,621.086121 1324.782593,615.555176 
	C1324.748657,613.435913 1324.815674,611.732422 1325.018921,609.840027 
	C1325.062256,609.090759 1324.969238,608.530457 1324.773193,607.553101 
	C1324.735718,605.426147 1324.801270,603.716309 1324.866821,602.006470 
	C1326.655273,598.180298 1328.364868,594.314026 1330.280273,590.552612 
	C1330.852661,589.428467 1331.818359,588.194763 1332.915161,587.696167 
	C1342.377563,583.394531 1345.277222,573.852417 1350.372192,566.081787 
	C1354.601318,559.631287 1358.589844,553.018127 1363.003418,546.699524 
	C1363.530762,545.944580 1366.220947,546.165039 1367.614990,546.699341 
	C1369.048218,547.248596 1370.121460,548.736511 1371.679688,549.909302 
	C1372.057007,570.695129 1372.106934,591.385254 1372.073486,612.537598 
z"/>
<path fill="#2EB4D8" opacity="1.000000" stroke="none" 
	d="
M1367.544189,270.498291 
	C1362.010742,269.232880 1359.711670,272.429749 1358.150146,277.017578 
	C1354.725464,287.079651 1348.606445,295.159180 1340.993042,302.620697 
	C1336.354492,307.166656 1333.624878,313.665161 1330.062500,319.302307 
	C1328.501953,321.771881 1327.003906,324.280792 1324.931885,326.531738 
	C1324.256226,325.147430 1323.993042,324.000641 1324.015381,322.859497 
	C1324.402710,303.145294 1322.149170,283.801208 1316.045166,264.872803 
	C1316.073364,264.481842 1315.937012,264.295471 1315.753418,264.184448 
	C1315.833984,264.174896 1315.850220,264.336304 1315.753418,264.108429 
	C1315.517212,263.581909 1315.348877,263.300629 1314.956787,262.731201 
	C1313.429565,259.644226 1312.097168,256.862793 1311.016357,253.842010 
	C1315.063110,248.452057 1318.701660,243.175354 1322.714966,238.201019 
	C1324.906372,235.484940 1327.803711,233.349838 1330.249023,230.823502 
	C1332.127930,228.882538 1334.925903,226.942947 1335.339966,224.646515 
	C1336.391602,218.815079 1339.580200,217.268982 1344.801880,217.998566 
	C1356.150635,233.712128 1363.620239,251.118393 1367.544189,270.498291 
z"/>
<path fill="#2CBCD2" opacity="1.000000" stroke="none" 
	d="
M1344.717041,217.677277 
	C1339.580200,217.268982 1336.391602,218.815079 1335.339966,224.646515 
	C1334.925903,226.942947 1332.127930,228.882538 1330.249023,230.823502 
	C1327.803711,233.349838 1324.906372,235.484940 1322.714966,238.201019 
	C1318.701660,243.175354 1315.063110,248.452057 1310.730469,253.657257 
	C1309.268066,251.972366 1308.434570,250.176743 1307.404175,248.502289 
	C1299.575562,235.779587 1288.941895,225.752533 1276.997803,216.995331 
	C1275.679932,214.694260 1274.901001,211.591553 1272.927856,210.265121 
	C1269.236816,207.783646 1268.503906,206.168716 1272.555908,203.568588 
	C1275.507202,201.674774 1277.557617,199.234558 1276.219238,195.273270 
	C1275.934570,194.431213 1276.051147,193.130280 1276.532104,192.405060 
	C1279.837036,187.421921 1282.878296,182.164337 1286.860718,177.771271 
	C1288.923828,175.495346 1292.737061,174.805954 1295.937622,173.064911 
	C1315.768066,183.821564 1331.745483,198.908676 1344.717041,217.677277 
z"/>
<path fill="#4BDE8A" opacity="1.000000" stroke="none" 
	d="
M797.760498,152.118225 
	C819.536072,152.062561 841.311584,152.006912 863.546753,152.465912 
	C862.452515,160.227097 860.629883,167.428833 859.411682,174.731384 
	C857.839172,184.157700 856.466736,193.503189 845.672058,197.561813 
	C845.828308,198.039551 845.984558,198.517303 846.140808,198.995056 
	C864.745605,198.995056 883.350403,198.995056 902.428284,199.003021 
	C909.599304,199.398682 916.297302,199.786377 922.535706,200.272308 
	C890.647888,200.377258 859.219543,200.356293 827.791321,200.397583 
	C786.889099,200.451309 745.986938,200.554428 705.311157,200.352417 
	C707.268982,199.722580 708.995667,199.108047 710.732666,199.077301 
	C718.169189,198.945572 725.608826,198.985901 733.510742,198.976852 
	C745.102356,198.994507 756.230652,199.015610 767.358887,198.997223 
	C774.789978,198.984940 781.987366,198.766785 789.340088,196.227432 
	C797.356689,193.458786 800.811279,187.818420 801.862305,180.728165 
	C802.576843,175.907898 800.834167,170.704407 800.073242,165.690063 
	C799.384766,161.153595 798.537659,156.641220 797.760498,152.118225 
z"/>
<path fill="#3FD79D" opacity="1.000000" stroke="none" 
	d="
M564.905640,835.084412 
	C565.827820,831.178955 567.929443,831.711426 570.158752,833.901245 
	C572.174255,835.881165 573.377136,836.152954 574.975891,833.275146 
	C581.190979,822.087646 586.038269,810.388733 589.177673,797.974792 
	C590.371765,793.252991 591.448303,788.460083 593.225342,783.954834 
	C593.694824,782.764648 596.569275,782.523071 598.824341,782.189209 
	C599.986206,787.516785 599.910156,792.752319 601.475098,797.440063 
	C607.131042,814.381897 615.168091,830.076477 627.451172,843.078247 
	C625.748291,844.562378 623.578674,845.820129 623.196411,847.487610 
	C619.882690,861.942017 613.623535,874.443298 600.996216,883.031067 
	C586.240967,870.738281 575.180420,855.557800 566.272766,838.190430 
	C566.210632,837.436157 566.075500,837.219727 565.823669,837.071106 
	C565.823669,837.071106 565.914734,837.092834 565.842590,836.838196 
	C565.466187,836.062256 565.161926,835.540894 564.857605,835.019592 
	C564.857605,835.019592 564.922424,835.052246 564.905640,835.084412 
z"/>
<path fill="#34AADF" opacity="1.000000" stroke="none" 
	d="
M962.424500,921.426880 
	C959.931519,920.861572 957.680176,920.825867 955.904602,919.888733 
	C952.565552,918.126160 948.223511,916.524048 946.663086,913.595398 
	C944.920959,910.325867 943.767700,905.453857 948.910156,902.247131 
	C950.876648,901.020813 951.691101,897.912598 952.965576,895.625793 
	C953.597656,894.491638 953.760925,892.756897 954.687561,892.181824 
	C960.164673,888.781677 958.887451,882.124329 961.992981,877.644043 
	C963.200745,875.901733 964.542725,874.252747 965.814148,872.554199 
	C966.914185,871.084717 968.121887,869.678467 969.068726,868.115051 
	C971.077026,864.799316 972.946350,861.399536 975.412598,858.167603 
	C981.192200,868.900208 989.682617,874.124146 1001.546509,874.024292 
	C1009.695801,873.955627 1017.847229,874.128357 1025.835938,874.504883 
	C1023.917297,875.548279 1022.102478,876.168457 1020.419556,877.042419 
	C1018.641174,877.965942 1016.357483,878.731140 1015.388184,880.259216 
	C1010.711487,887.632446 1006.049255,895.061401 1002.134094,902.848694 
	C1000.501892,906.095337 999.559875,910.578186 1000.412842,913.968384 
	C1001.577026,918.595398 1005.697754,920.371643 1010.958435,920.121765 
	C1020.397644,919.673340 1029.874634,919.930115 1039.333496,920.061096 
	C1041.209351,920.087097 1043.074463,920.872437 1044.944580,921.307617 
	C1030.360229,921.418579 1015.776123,921.578796 1001.191589,921.625549 
	C988.421570,921.666443 975.651123,921.579895 962.424500,921.426880 
z"/>
<path fill="#3D98E1" opacity="1.000000" stroke="none" 
	d="
M1132.923828,921.421326 
	C1119.239624,921.478943 1105.555298,921.536621 1091.160400,921.223999 
	C1088.682007,920.571167 1086.916382,920.061584 1085.146118,920.044128 
	C1076.174927,919.955322 1067.201660,920.062012 1058.230591,919.967651 
	C1050.659180,919.888000 1047.897583,915.965454 1050.638306,909.028198 
	C1052.924072,903.242371 1055.832642,897.693298 1057.949219,891.852356 
	C1060.317993,885.315430 1064.418579,880.998230 1071.003662,878.644470 
	C1072.664185,878.050903 1073.706299,875.726807 1075.430664,874.118286 
	C1095.216675,874.095581 1114.604614,874.152588 1133.951782,874.552612 
	C1133.206909,875.962585 1132.612671,877.125305 1131.780151,878.080261 
	C1128.027588,882.385132 1124.110352,886.549805 1120.445923,890.927124 
	C1118.014404,893.831665 1116.101562,897.176758 1113.618530,900.030640 
	C1108.829590,905.534607 1105.989868,911.823853 1104.399902,920.065063 
	C1114.394165,920.065063 1123.756836,920.065063 1133.090820,920.291748 
	C1132.988892,920.815308 1132.942871,921.116211 1132.923828,921.421326 
z"/>
<path fill="#46DA92" opacity="1.000000" stroke="none" 
	d="
M901.955200,198.995056 
	C883.350403,198.995056 864.745605,198.995056 846.140808,198.995056 
	C845.984558,198.517303 845.828308,198.039551 845.672058,197.561813 
	C856.466736,193.503189 857.839172,184.157700 859.411682,174.731384 
	C860.629883,167.428833 862.452515,160.227097 864.010437,152.545471 
	C885.039368,152.058762 906.064270,152.007111 927.453857,152.354904 
	C925.272949,155.537857 922.148743,157.985931 920.300842,161.173798 
	C916.299377,168.076920 912.794678,175.208405 913.789551,183.781570 
	C914.025146,185.811676 912.058289,188.415588 910.514832,190.262756 
	C907.909546,193.380707 904.833313,196.105118 901.955200,198.995056 
z"/>
<path fill="#38D3A5" opacity="1.000000" stroke="none" 
	d="
M601.129639,883.297852 
	C613.623535,874.443298 619.882690,861.942017 623.196411,847.487610 
	C623.578674,845.820129 625.748291,844.562378 627.731567,843.233887 
	C629.236633,844.293640 630.099304,845.234253 631.101685,846.330017 
	C631.436523,846.684814 631.646667,846.867065 632.150085,847.134399 
	C632.959167,847.803955 633.489929,848.371094 634.151062,849.124756 
	C634.466125,849.552979 634.669983,849.777344 635.111694,850.258301 
	C636.216614,850.946838 637.131165,851.310425 637.984314,851.784363 
	C647.335144,856.978760 656.676392,862.190369 666.020203,867.397400 
	C667.654419,873.225952 665.604919,878.261841 663.248169,883.524109 
	C661.679199,887.027100 661.999390,891.331787 660.780884,895.050476 
	C659.847717,897.898376 658.307434,900.883118 656.191650,902.935425 
	C652.203125,906.804688 651.971619,908.984619 656.380371,912.457275 
	C657.150696,913.064026 657.925964,913.664734 658.849487,914.557007 
	C638.880066,909.773499 621.077637,900.235901 604.891296,886.432068 
	C604.094666,885.602478 603.634460,885.277344 603.174194,884.952209 
	C602.537170,884.489685 601.900146,884.027222 601.129639,883.297852 
z"/>
<path fill="#56E378" opacity="1.000000" stroke="none" 
	d="
M733.047302,198.963486 
	C725.608826,198.985901 718.169189,198.945572 710.732666,199.077301 
	C708.995667,199.108047 707.268982,199.722580 704.848572,200.449005 
	C696.775330,201.444351 689.391052,202.059219 682.006836,202.674103 
	C682.989197,201.366058 684.178284,200.161697 684.899719,198.722824 
	C685.734863,197.056900 686.198242,195.196960 686.752869,193.399612 
	C687.843201,189.865753 688.834595,186.300690 689.968506,182.781265 
	C690.515076,181.084763 691.799988,179.482803 691.866943,177.802826 
	C692.045959,173.312866 693.344238,170.021042 697.674255,167.713898 
	C702.021545,165.397614 699.309265,161.242294 699.418213,157.394989 
	C702.175659,156.260574 706.245178,157.481659 705.029907,152.491714 
	C719.386414,152.311264 733.742859,152.130814 748.599243,152.427032 
	C749.785278,156.608276 751.226501,160.416168 747.379150,163.418762 
	C746.948975,163.754471 746.696533,164.605423 746.727539,165.198334 
	C746.956360,169.572098 747.580017,173.945831 747.510559,178.310501 
	C747.343994,188.778427 747.964783,194.586502 736.140991,196.825760 
	C735.015198,197.038971 734.074097,198.227646 733.047302,198.963486 
z"/>
<path fill="#3FD79D" opacity="1.000000" stroke="none" 
	d="
M902.428284,199.003021 
	C904.833313,196.105118 907.909546,193.380707 910.514832,190.262756 
	C912.058289,188.415588 914.025146,185.811676 913.789551,183.781570 
	C912.794678,175.208405 916.299377,168.076920 920.300842,161.173798 
	C922.148743,157.985931 925.272949,155.537857 927.917969,152.432648 
	C943.375549,152.062454 958.733643,152.013962 974.557373,152.042999 
	C973.343018,153.619247 970.718018,154.826675 970.150330,156.668289 
	C967.971497,163.736511 960.455750,168.496323 962.909058,177.920822 
	C964.138611,182.643936 964.266357,189.249313 960.372009,194.416626 
	C958.267700,197.208847 956.830383,200.625732 955.645569,203.957596 
	C954.224609,207.953568 951.617432,209.255905 947.639587,209.124603 
	C946.513123,209.087418 945.351074,210.127563 943.732178,210.837524 
	C938.144348,204.323105 931.160339,201.143326 922.995239,200.174057 
	C916.297302,199.786377 909.599304,199.398682 902.428284,199.003021 
z"/>
<path fill="#4E7ADF" opacity="1.000000" stroke="none" 
	d="
M1288.587646,848.231384 
	C1289.704834,855.189392 1286.859009,860.356262 1282.462280,865.731140 
	C1278.635498,870.409241 1276.797241,876.700317 1273.992676,882.234253 
	C1272.628784,884.925659 1271.255859,887.648010 1269.543579,890.118164 
	C1267.436279,893.158020 1263.986816,895.614197 1262.861328,898.916809 
	C1260.398804,906.144104 1257.185913,912.306946 1249.864258,915.567017 
	C1249.189453,915.867615 1248.784302,916.773865 1248.131592,917.714844 
	C1237.640869,919.048706 1227.272217,920.066528 1216.080688,920.839966 
	C1211.449585,920.205200 1207.641479,919.814819 1203.524902,919.392761 
	C1206.806396,914.525818 1209.573120,910.286621 1212.483154,906.148376 
	C1214.900024,902.711548 1217.480713,899.389648 1219.998657,896.024109 
	C1221.277100,894.315369 1222.403687,892.449646 1223.898071,890.953735 
	C1229.198364,885.647827 1234.037842,880.118835 1235.402832,872.149292 
	C1255.803589,869.437622 1273.325317,861.339111 1288.587646,848.231384 
z"/>
<path fill="#457DD3" opacity="1.000000" stroke="none" 
	d="
M1235.002930,872.258423 
	C1234.037842,880.118835 1229.198364,885.647827 1223.898071,890.953735 
	C1222.403687,892.449646 1221.277100,894.315369 1219.998657,896.024109 
	C1217.480713,899.389648 1214.900024,902.711548 1212.483154,906.148376 
	C1209.573120,910.286621 1206.806396,914.525818 1203.524902,919.392761 
	C1207.641479,919.814819 1211.449585,920.205200 1215.615967,920.782104 
	C1197.062988,921.207275 1178.152222,921.481262 1159.240479,921.668823 
	C1150.776978,921.752808 1142.312012,921.663452 1133.385742,921.537048 
	C1132.942871,921.116211 1132.988892,920.815308 1133.545898,920.286621 
	C1139.359375,920.048523 1144.689575,920.071472 1150.019165,920.028870 
	C1156.870605,919.974060 1159.885864,917.079834 1161.042603,910.376404 
	C1161.594849,907.175720 1162.380737,903.649292 1164.220825,901.111511 
	C1168.307007,895.475891 1173.258789,890.477112 1177.595947,885.010925 
	C1180.305664,881.595825 1182.538574,877.802368 1185.448608,874.096069 
	C1202.275513,873.428528 1218.639160,872.843506 1235.002930,872.258423 
z"/>
<path fill="#4FE081" opacity="1.000000" stroke="none" 
	d="
M733.510742,198.976837 
	C734.074097,198.227646 735.015198,197.038971 736.140991,196.825760 
	C747.964783,194.586502 747.343994,188.778427 747.510559,178.310501 
	C747.580017,173.945831 746.956360,169.572098 746.727539,165.198334 
	C746.696533,164.605423 746.948975,163.754471 747.379150,163.418762 
	C751.226501,160.416168 749.785278,156.608276 749.063965,152.506165 
	C765.017761,152.058258 781.006897,152.007874 797.378235,152.037842 
	C798.537659,156.641220 799.384766,161.153595 800.073242,165.690063 
	C800.834167,170.704407 802.576843,175.907898 801.862305,180.728165 
	C800.811279,187.818420 797.356689,193.458786 789.340088,196.227432 
	C781.987366,198.766785 774.789978,198.984940 767.358887,198.997223 
	C756.230652,199.015610 745.102356,198.994507 733.510742,198.976837 
z"/>
<path fill="#37A3DF" opacity="1.000000" stroke="none" 
	d="
M1075.032593,874.197998 
	C1073.706299,875.726807 1072.664185,878.050903 1071.003662,878.644470 
	C1064.418579,880.998230 1060.317993,885.315430 1057.949219,891.852356 
	C1055.832642,897.693298 1052.924072,903.242371 1050.638306,909.028198 
	C1047.897583,915.965454 1050.659180,919.888000 1058.230591,919.967651 
	C1067.201660,920.062012 1076.174927,919.955322 1085.146118,920.044128 
	C1086.916382,920.061584 1088.682007,920.571167 1090.703125,921.104004 
	C1075.925293,921.420410 1060.894165,921.486572 1045.403809,921.430176 
	C1043.074463,920.872437 1041.209351,920.087097 1039.333496,920.061096 
	C1029.874634,919.930115 1020.397644,919.673340 1010.958435,920.121765 
	C1005.697754,920.371643 1001.577026,918.595398 1000.412842,913.968384 
	C999.559875,910.578186 1000.501892,906.095337 1002.134094,902.848694 
	C1006.049255,895.061401 1010.711487,887.632446 1015.388184,880.259216 
	C1016.357483,878.731140 1018.641174,877.965942 1020.419556,877.042419 
	C1022.102478,876.168457 1023.917297,875.548279 1026.298950,874.426819 
	C1042.960083,874.090759 1058.996338,874.144409 1075.032593,874.197998 
z"/>
<path fill="#5DE56E" opacity="1.000000" stroke="none" 
	d="
M704.622803,152.421631 
	C706.245178,157.481659 702.175659,156.260574 699.378174,156.989120 
	C699.000000,156.999390 699.000000,157.000000 698.962952,156.672119 
	C698.276062,155.229935 697.626282,154.115646 696.976501,153.001343 
	C699.389587,152.784744 701.802612,152.568146 704.622803,152.421631 
z"/>
<path fill="#56E378" opacity="1.000000" stroke="none" 
	d="
M696.583252,152.935791 
	C697.626282,154.115646 698.276062,155.229935 698.962952,156.672424 
	C696.937500,155.992905 692.584045,159.401840 692.960632,153.510468 
	C694.084961,153.083679 695.137512,152.976974 696.583252,152.935791 
z"/>
<path fill="#3FD79D" opacity="1.000000" stroke="none" 
	d="
M603.319336,885.200623 
	C603.634460,885.277344 604.094666,885.602478 604.717896,886.160278 
	C604.408691,886.078308 603.936584,885.763672 603.319336,885.200623 
z"/>
<path fill="#46DA92" opacity="1.000000" stroke="none" 
	d="
M564.883301,835.331299 
	C565.161926,835.540894 565.466187,836.062256 565.831055,836.883545 
	C565.564026,836.670044 565.236511,836.156555 564.883301,835.331299 
z"/>
<path fill="#46DA92" opacity="1.000000" stroke="none" 
	d="
M565.853333,837.321350 
	C566.075500,837.219727 566.210632,837.436157 566.201294,837.851929 
	C566.076782,837.846069 565.979919,837.708862 565.853333,837.321350 
z"/>
<path fill="#56E378" opacity="1.000000" stroke="none" 
	d="
M596.921631,509.992065 
	C595.907837,511.106049 594.262390,512.082520 593.984985,513.356812 
	C592.440430,520.451538 590.642212,527.213074 586.841125,533.714111 
	C582.728699,540.747620 580.738708,548.987488 577.276184,556.447449 
	C574.786560,561.811218 570.885864,566.535278 568.534119,571.944458 
	C565.055542,579.945435 562.362854,588.290344 559.408142,596.514893 
	C558.829773,598.124756 558.581238,599.853088 557.197266,601.509033 
	C552.372375,580.182495 549.851624,558.739197 550.968018,536.456055 
	C550.976257,516.299866 550.992432,496.613922 551.015930,476.458191 
	C552.012329,479.530365 553.422363,483.018738 553.881348,486.628082 
	C554.423828,490.893494 553.961121,495.277954 554.303528,499.581451 
	C554.461243,501.563324 555.497803,503.475281 556.135864,505.418945 
	C556.814697,505.514893 557.493469,505.610870 558.172241,505.706818 
	C559.598145,501.202240 561.018066,496.695770 562.451233,492.193481 
	C564.685364,485.174652 566.917664,478.155212 569.186584,471.147583 
	C569.386169,470.531158 570.011475,470.040924 570.166931,469.423553 
	C573.198975,457.381104 580.793274,447.572021 586.763733,437.080017 
	C589.493225,432.283447 591.976135,427.740814 593.373718,422.458191 
	C593.631042,421.485901 595.220825,420.866119 596.645386,420.499390 
	C597.037354,450.607483 596.979492,480.299744 596.921631,509.992065 
z"/>
<path fill="#0D1016" opacity="1.000000" stroke="none" 
	d="
M1075.430664,874.118286 
	C1058.996338,874.144409 1042.960083,874.090759 1026.460693,874.115234 
	C1017.847229,874.128357 1009.695801,873.955627 1001.546509,874.024292 
	C989.682617,874.124146 981.192200,868.900208 975.767578,858.033081 
	C972.887329,853.138733 973.234985,848.377441 973.758057,843.151001 
	C974.578735,834.950378 973.967407,826.606506 973.962463,818.323303 
	C973.959595,813.519226 973.956726,808.715210 973.952148,802.987000 
	C973.887451,782.040833 973.824585,762.018738 973.845215,741.535034 
	C973.874329,715.711792 973.819946,690.350342 973.844971,664.526855 
	C973.887024,634.377625 973.849792,604.690430 973.896240,574.551514 
	C971.828308,555.188293 984.149841,541.072937 1005.694641,542.506104 
	C1020.383545,543.483154 1035.203613,542.488708 1050.426147,542.482788 
	C1075.562988,542.516724 1100.238770,542.443726 1125.379883,542.480347 
	C1132.646240,542.618652 1139.447388,542.698425 1146.248169,542.665894 
	C1163.490479,542.583313 1180.732422,542.450439 1198.431641,542.453552 
	C1212.915161,542.484680 1226.941895,542.399902 1241.416260,542.436096 
	C1245.247803,542.471497 1248.631592,542.385864 1252.468872,542.418396 
	C1259.604126,542.473267 1266.286011,542.410034 1272.967773,542.346802 
	C1281.395386,542.461182 1289.866577,542.100098 1298.234375,542.867126 
	C1303.318359,543.333191 1308.242676,545.541687 1313.589844,547.075195 
	C1315.152344,548.337280 1316.363892,549.491638 1317.960571,551.072021 
	C1318.875366,552.047607 1319.404785,552.597229 1319.934326,553.146973 
	C1320.193604,553.650146 1320.453003,554.153320 1320.961914,555.102173 
	C1321.439697,555.789185 1321.667969,556.030640 1321.896362,556.272095 
	C1321.896362,556.272034 1321.920288,556.685486 1322.097656,557.187195 
	C1322.784302,558.701172 1323.293457,559.713440 1323.802612,560.725708 
	C1324.093384,574.178833 1324.384155,587.631958 1324.770874,601.545776 
	C1324.801270,603.716309 1324.735718,605.426147 1324.686890,607.892822 
	C1324.763428,609.109375 1324.823120,609.569214 1324.882812,610.028992 
	C1324.815674,611.732422 1324.748657,613.435913 1324.686523,616.015747 
	C1324.751953,621.935486 1324.812622,626.978821 1324.873291,632.022217 
	C1324.812744,647.043884 1324.752319,662.065613 1324.785645,677.549011 
	C1324.799438,693.760742 1324.763062,709.511108 1324.625977,725.260620 
	C1324.516235,737.865540 1324.283936,750.469360 1324.163818,763.539307 
	C1323.010986,773.705811 1322.311279,783.503967 1320.486450,793.087769 
	C1316.338867,814.871460 1305.162231,832.796814 1288.765869,847.972168 
	C1273.325317,861.339111 1255.803589,869.437622 1235.402832,872.149292 
	C1218.639160,872.843506 1202.275513,873.428528 1184.985229,874.028076 
	C1167.369995,874.098328 1150.681396,874.153992 1133.992676,874.209656 
	C1114.604614,874.152588 1095.216675,874.095581 1075.430664,874.118286 
M1173.062134,708.038452 
	C1155.100830,708.021667 1137.138794,707.895325 1119.178711,708.036743 
	C1110.822510,708.102539 1104.440186,714.912048 1104.434204,723.170288 
	C1104.428589,730.934875 1111.010620,737.802979 1119.095337,737.882996 
	C1132.061279,738.011414 1145.030640,737.791382 1158.922729,737.880066 
	C1170.408081,737.879822 1181.895386,738.015381 1193.377930,737.834961 
	C1202.001465,737.699524 1208.214722,731.295898 1208.299927,722.941589 
	C1208.384399,714.659241 1202.089966,708.205322 1193.449829,708.032837 
	C1186.966064,707.903320 1180.475586,708.120300 1173.062134,708.038452 
M1052.109131,646.702698 
	C1054.926147,649.697021 1057.743042,652.691406 1060.723511,655.859558 
	C1059.183716,657.519592 1057.994263,658.876099 1056.727295,660.156006 
	C1047.477051,669.501587 1038.188354,678.809082 1028.958130,688.174438 
	C1022.661865,694.562988 1022.389587,703.038086 1028.190186,709.139404 
	C1034.082397,715.336853 1043.480469,715.798828 1049.661865,709.689819 
	C1063.985840,695.533447 1078.186157,681.248291 1092.239014,666.822815 
	C1098.305298,660.595520 1098.399292,651.339050 1092.391479,645.142883 
	C1083.364990,635.833374 1073.948853,626.901733 1064.230469,617.262512 
	C1063.148804,616.252686 1062.022583,615.286133 1060.993408,614.225342 
	C1056.946411,610.054260 1053.187744,605.561035 1048.841187,601.733459 
	C1042.558105,596.200867 1033.728638,596.859009 1028.140991,602.757629 
	C1022.806763,608.388733 1022.528625,617.011902 1028.004639,622.642883 
	C1035.769409,630.627502 1043.864624,638.290771 1052.109131,646.702698 
z"/>
<path fill="#0D1015" opacity="1.000000" stroke="none" 
	d="
M597.005188,510.454987 
	C596.979492,480.299744 597.037354,450.607483 597.012756,420.451416 
	C597.007080,391.869232 596.985474,363.750122 597.194641,335.632721 
	C597.337830,316.375427 596.876404,296.962555 602.008972,278.203217 
	C613.218262,237.233734 639.703918,212.009750 681.670166,202.795685 
	C689.391052,202.059219 696.775330,201.444351 704.622131,200.732910 
	C745.986938,200.554428 786.889099,200.451309 827.791321,200.397583 
	C859.219543,200.356293 890.647888,200.377258 922.535706,200.272308 
	C931.160339,201.143326 938.144348,204.323105 943.546082,211.188400 
	C945.231323,217.453659 947.756897,223.516830 947.838623,229.612762 
	C948.265564,261.430756 948.071472,293.257080 948.092285,326.005371 
	C948.141174,361.627686 948.191101,396.325104 948.162354,431.483032 
	C948.136719,449.014618 948.189697,466.085754 948.167236,483.570801 
	C948.141235,501.321808 948.190796,518.658936 948.158447,536.458618 
	C948.125000,555.619568 948.173401,574.317993 948.148560,593.478516 
	C948.136169,621.634521 948.197083,649.328308 948.178955,677.482666 
	C948.164490,705.962891 948.228943,733.982605 948.211182,762.464417 
	C948.173462,786.286438 948.218079,809.646423 948.262695,833.006409 
	C948.087646,839.324829 948.749146,845.803955 947.571899,851.929810 
	C944.678223,866.987610 935.345276,873.787354 918.405518,874.141846 
	C893.656799,874.170166 869.294006,874.115906 844.468994,874.139526 
	C808.594604,874.167114 773.182556,874.116882 737.358643,874.137939 
	C722.661377,873.774475 708.330872,873.884399 694.106445,872.709839 
	C684.907715,871.950317 675.864197,869.311279 666.385620,867.455933 
	C656.676392,862.190369 647.335144,856.978760 637.984314,851.784363 
	C637.131165,851.310425 636.216614,850.946838 635.107361,849.998413 
	C634.596313,849.289185 634.308533,849.113708 634.020752,848.938232 
	C633.489929,848.371094 632.959167,847.803955 632.070068,846.925659 
	C631.532349,846.347595 631.282410,846.200989 630.961975,846.174805 
	C630.099304,845.234253 629.236633,844.293640 628.093506,843.197449 
	C615.168091,830.076477 607.131042,814.381897 601.475098,797.440063 
	C599.910156,792.752319 599.986206,787.516785 599.168823,782.255859 
	C598.386047,752.291260 597.743652,722.603271 597.100586,691.991577 
	C597.115234,686.582458 597.152344,682.097046 597.142273,677.611694 
	C597.079895,649.707581 597.006958,621.803406 596.937500,593.899292 
	C596.991333,575.593262 597.055176,557.287231 597.094849,538.981201 
	C597.115173,529.626831 597.092163,520.272339 597.005188,510.454987 
M808.652161,468.247711 
	C809.110168,468.188568 809.568237,468.129425 810.943726,468.260315 
	C822.421631,468.275482 833.901001,468.411194 845.376892,468.267975 
	C854.648987,468.152283 861.796936,461.083160 861.875854,452.337708 
	C861.958252,443.204895 854.871826,436.001648 845.463440,435.826813 
	C840.647339,435.737305 835.826172,435.914764 830.082642,435.799805 
	C806.113220,435.798615 782.143311,435.715302 758.174500,435.836761 
	C748.643188,435.885071 742.076904,442.540833 741.881409,451.796326 
	C741.693542,460.694550 748.092834,468.047119 757.120972,468.217316 
	C771.754028,468.493164 786.398438,468.171448 801.889832,468.285461 
	C803.918945,468.213013 805.947998,468.140533 808.652161,468.247711 
M680.900330,361.764648 
	C683.945129,364.842773 686.768616,368.191254 690.101013,370.917969 
	C693.042053,373.324432 693.054260,374.886932 690.371765,377.527740 
	C678.386475,389.327301 666.519226,401.248749 654.731812,413.246552 
	C647.966980,420.132202 647.839539,430.095947 654.156677,436.579376 
	C660.369141,442.955353 670.978149,443.066162 677.537292,436.537811 
	C694.298645,419.855042 710.986267,403.097534 727.613464,386.281067 
	C733.572937,380.253845 734.012146,370.194336 728.382141,363.988007 
	C723.626160,358.745087 718.324585,353.997101 712.925964,348.420532 
	C701.131348,336.477478 689.329285,324.541748 677.544922,312.588531 
	C671.067139,306.017914 661.109924,305.531555 654.669617,311.506226 
	C647.990723,317.702271 647.606384,327.901245 654.179626,334.705200 
	C662.832886,343.662201 671.761169,352.353394 680.900330,361.764648 
z"/>
<path fill="#0D1016" opacity="1.000000" stroke="none" 
	d="
M1276.661987,216.907684 
	C1288.941895,225.752533 1299.575562,235.779587 1307.404175,248.502289 
	C1308.434570,250.176743 1309.268066,251.972366 1310.478638,253.896622 
	C1312.097168,256.862793 1313.429565,259.644226 1314.964355,262.996735 
	C1315.394531,263.823975 1315.622437,264.080109 1315.850220,264.336304 
	C1315.850220,264.336304 1315.833984,264.174896 1315.777954,264.408875 
	C1315.721924,264.642853 1316.008057,264.992493 1316.008057,264.992493 
	C1322.149170,283.801208 1324.402710,303.145294 1324.015381,322.859497 
	C1323.993042,324.000641 1324.256226,325.147430 1324.603027,326.652313 
	C1324.768066,329.705017 1324.716675,332.396973 1324.659180,335.989075 
	C1324.719971,343.599304 1324.786621,350.309418 1324.853271,357.019501 
	C1324.785889,379.695099 1324.718628,402.370697 1324.747314,425.504517 
	C1324.750977,446.403992 1324.484863,466.846710 1324.656494,487.285706 
	C1324.720337,494.886169 1322.885010,501.873169 1318.487427,507.710968 
	C1314.126587,513.500061 1307.426636,516.015442 1300.163452,516.331482 
	C1294.353271,516.584229 1288.528564,516.502747 1281.861694,516.580383 
	C1262.268311,516.572266 1243.523560,516.516357 1224.778931,516.547791 
	C1212.511719,516.568359 1200.244629,516.715515 1187.588257,516.703735 
	C1186.136108,516.672729 1185.073120,516.743896 1183.752441,516.741089 
	C1183.322876,516.717590 1183.151245,516.768005 1182.521484,516.718018 
	C1174.449585,516.730469 1166.835938,516.933044 1159.222290,516.937622 
	C1143.486816,516.946960 1127.751343,516.850891 1111.556030,516.694397 
	C1099.826904,516.580566 1088.557495,516.539612 1077.288330,516.567322 
	C1059.231201,516.611694 1041.174072,516.701477 1022.717346,516.659302 
	C1016.027954,516.539551 1009.720947,516.230530 1003.451904,516.588440 
	C990.414124,517.332825 981.102234,512.000244 975.326416,500.073700 
	C975.065979,499.168518 974.828430,498.522125 974.582886,497.506531 
	C974.095703,496.071777 973.616455,495.006195 973.096924,493.546753 
	C972.986572,492.101837 972.916565,491.050781 973.044312,489.620758 
	C973.426392,479.498230 973.610718,469.754669 973.874268,459.547729 
	C973.893250,443.056793 973.832947,427.029297 973.850647,410.538757 
	C973.940735,383.257935 973.982483,356.440094 973.955811,329.622314 
	C973.933472,307.140961 973.831299,284.659637 973.764465,262.178314 
	C973.835449,250.918365 973.926392,239.658508 973.972717,228.398468 
	C974.042908,211.333481 984.204468,200.875305 1002.003174,200.299164 
	C1003.090210,200.233307 1003.477783,200.179611 1003.865356,200.125931 
	C1006.651001,200.193054 1009.436707,200.260193 1013.122925,200.316254 
	C1027.331421,200.245438 1040.639282,200.185684 1053.947266,200.125916 
	C1054.417603,200.186523 1054.887939,200.247131 1056.157715,200.307770 
	C1063.295410,200.250000 1069.633667,200.192215 1075.971802,200.134430 
	C1080.044678,200.201263 1084.117676,200.268112 1088.585449,200.237183 
	C1108.735352,200.207840 1128.490479,200.295990 1148.245483,200.338287 
	C1163.191650,200.370285 1178.137695,200.343765 1193.545410,200.249695 
	C1199.396851,200.290543 1204.786743,200.425003 1211.000977,200.587601 
	C1213.548340,200.615356 1215.271362,200.614975 1216.994385,200.614594 
	C1228.177856,202.138611 1239.624268,202.658371 1250.463135,205.498047 
	C1259.455688,207.854019 1267.732300,212.942230 1276.661987,216.907684 
M1158.106934,366.103394 
	C1145.119263,366.090332 1132.130005,365.951508 1119.144531,366.109436 
	C1110.787964,366.210999 1104.504150,372.656677 1104.440918,380.683319 
	C1104.375366,389.004242 1110.673950,395.863556 1119.081787,395.909943 
	C1139.390747,396.022003 1159.701416,395.843842 1180.933228,395.940094 
	C1185.423950,395.923370 1189.928955,396.127655 1194.402466,395.841980 
	C1202.659058,395.314850 1208.479248,388.747620 1208.301880,380.516296 
	C1208.132568,372.655304 1202.045654,366.283386 1193.955444,366.159790 
	C1182.319946,365.981995 1170.678101,366.213531 1158.106934,366.103394 
M1066.719604,277.388641 
	C1061.109131,271.700745 1055.577148,265.932648 1049.865967,260.347687 
	C1044.209717,254.816376 1034.625000,254.682358 1028.933472,259.850861 
	C1023.058960,265.185516 1022.140564,274.695190 1027.656494,280.553497 
	C1035.850342,289.255859 1044.548828,297.483093 1053.354492,306.502869 
	C1055.734863,309.007843 1058.115356,311.512848 1061.446289,315.018127 
	C1059.633789,316.281342 1057.941162,317.134979 1056.661499,318.404846 
	C1047.218750,327.775482 1037.775879,337.149048 1028.501221,346.685242 
	C1022.467407,352.889191 1022.618286,361.823761 1028.530151,367.734985 
	C1034.298828,373.503052 1043.784302,373.813538 1049.686035,367.969086 
	C1063.982666,353.811310 1078.171631,339.542053 1092.226318,325.144226 
	C1098.418823,318.800476 1098.271606,309.501709 1092.185303,303.099884 
	C1086.686523,297.315826 1081.030396,291.680084 1075.376221,286.046539 
	C1074.484741,285.158356 1073.236694,284.628265 1072.007446,283.298279 
	C1070.997803,282.226624 1069.988281,281.154938 1068.741699,279.540771 
	C1068.155273,279.027527 1067.568726,278.514282 1066.719604,277.388641 
z"/>
<path fill="#34AADF" opacity="1.000000" stroke="none" 
	d="
M1187.977539,516.805969 
	C1200.244629,516.715515 1212.511719,516.568359 1224.778931,516.547791 
	C1243.523560,516.516357 1262.268311,516.572266 1281.465576,516.696289 
	C1281.930542,517.001709 1281.942993,517.201843 1281.505371,517.700684 
	C1274.611694,518.002563 1268.105347,517.459351 1261.745972,518.192322 
	C1257.170532,518.719788 1250.993774,519.624390 1248.718384,522.710510 
	C1244.648926,528.229919 1239.421753,534.204956 1240.968506,542.315063 
	C1226.941895,542.399902 1212.915161,542.484680 1198.175781,542.203979 
	C1192.888306,541.553162 1188.315308,541.071289 1183.738892,541.038330 
	C1179.219604,541.005737 1177.515381,538.522034 1178.480591,534.702454 
	C1179.886719,529.137634 1180.514648,522.919983 1186.899902,520.014160 
	C1187.600586,519.695251 1187.634399,517.910706 1187.977539,516.805969 
z"/>
<path fill="#37A3DF" opacity="1.000000" stroke="none" 
	d="
M1241.416260,542.436157 
	C1239.421753,534.204956 1244.648926,528.229919 1248.718384,522.710510 
	C1250.993774,519.624390 1257.170532,518.719788 1261.745972,518.192322 
	C1268.105347,517.459351 1274.611694,518.002563 1281.522705,518.000977 
	C1280.421631,524.468872 1278.853027,530.935303 1277.137817,538.006226 
	C1276.075073,538.532532 1274.197510,539.462341 1271.690918,540.695374 
	C1269.071899,540.999817 1267.071777,540.871582 1265.094238,541.028931 
	C1260.728638,541.376343 1256.374268,541.867676 1252.015381,542.300293 
	C1248.631592,542.385864 1245.247803,542.471497 1241.416260,542.436157 
z"/>
<path fill="#34AADF" opacity="1.000000" stroke="none" 
	d="
M1252.468872,542.418457 
	C1256.374268,541.867676 1260.728638,541.376343 1265.094238,541.028931 
	C1267.071777,540.871582 1269.071899,540.999817 1271.529785,540.996094 
	C1272.262817,541.316956 1272.527954,541.640259 1272.880371,542.155151 
	C1266.286011,542.410034 1259.604126,542.473267 1252.468872,542.418457 
z"/>
<path fill="#30CFAA" opacity="1.000000" stroke="none" 
	d="
M973.341919,262.184906 
	C973.831299,284.659637 973.933472,307.140961 973.955811,329.622314 
	C973.982483,356.440094 973.940735,383.257935 973.520508,410.433228 
	C970.171631,409.259918 967.343506,407.857880 965.304932,412.136871 
	C961.505127,420.112396 957.900391,428.318939 948.241089,431.022552 
	C948.191101,396.325104 948.141174,361.627686 948.171021,326.468597 
	C948.834229,322.722076 949.719299,319.455719 949.922974,316.147430 
	C950.164368,312.227570 949.902039,308.710144 955.031677,307.234528 
	C956.536621,306.801636 957.480164,302.953918 957.884399,300.537964 
	C958.362976,297.678162 958.556519,295.340790 961.572449,293.551178 
	C963.285522,292.534668 964.228577,289.582550 964.756287,287.324097 
	C966.440430,280.115570 967.623718,272.788818 969.362976,265.595398 
	C969.687683,264.252625 971.690735,263.315704 973.341919,262.184906 
z"/>
<path fill="#29CBBE" opacity="1.000000" stroke="none" 
	d="
M1053.602051,199.907501 
	C1040.639282,200.185684 1027.331421,200.245438 1013.577515,200.215759 
	C1013.120239,199.947510 1013.108765,199.768677 1013.094360,199.321777 
	C1024.690796,199.042023 1036.290283,199.001663 1047.889526,199.048889 
	C1049.679443,199.056168 1051.467896,199.465622 1053.602051,199.907501 
z"/>
<path fill="#29CBBE" opacity="1.000000" stroke="none" 
	d="
M1003.712708,199.995041 
	C1003.477783,200.179611 1003.090210,200.233307 1002.420288,200.202728 
	C1002.611938,200.033691 1003.085999,199.948929 1003.712708,199.995041 
z"/>
<path fill="#29CBBE" opacity="1.000000" stroke="none" 
	d="
M1216.811157,200.356644 
	C1215.271362,200.614975 1213.548340,200.615356 1211.412109,200.489639 
	C1212.875366,200.275269 1214.751587,200.186981 1216.811157,200.356644 
z"/>
<path fill="#4BDE8A" opacity="1.000000" stroke="none" 
	d="
M596.539856,594.016113 
	C597.006958,621.803406 597.079895,649.707581 597.142273,677.611694 
	C597.152344,682.097046 597.115234,686.582458 597.016357,691.528931 
	C595.363037,693.357117 593.263123,694.429993 592.313354,696.141235 
	C587.597168,704.638611 582.986877,713.207947 578.723145,721.939331 
	C574.910339,729.747314 571.778748,737.886658 568.008789,745.717163 
	C564.815125,752.350708 561.138367,758.751770 557.675415,765.255676 
	C557.071228,765.216736 556.467102,765.177795 555.862915,765.138855 
	C554.923157,760.744995 554.016907,756.343506 553.025757,751.961304 
	C552.675049,750.410706 552.117249,748.906921 551.336548,747.191589 
	C551.019104,722.156982 551.019104,697.312561 551.019104,672.468140 
	C551.383606,672.435364 551.748169,672.402588 552.112671,672.369812 
	C553.303467,677.087524 554.494263,681.805237 555.685059,686.523010 
	C556.272644,686.581604 556.860168,686.640198 557.447754,686.698792 
	C558.894897,684.434021 560.406067,682.207214 561.777710,679.897583 
	C566.560181,671.844177 571.827576,664.018311 575.868774,655.605469 
	C578.805603,649.491821 579.960938,642.541138 582.185364,636.057983 
	C583.137085,633.284241 584.540100,630.586121 586.165100,628.137024 
	C591.772339,619.686035 591.718140,609.919739 593.110779,600.443542 
	C593.434814,598.239075 595.096191,596.231201 596.539856,594.016113 
z"/>
<path fill="#2EB4D8" opacity="1.000000" stroke="none" 
	d="
M1325.073975,356.666809 
	C1324.786621,350.309418 1324.719971,343.599304 1324.757812,336.427917 
	C1325.006470,342.749146 1325.150635,349.531647 1325.073975,356.666809 
z"/>
<path fill="#3A9BE0" opacity="1.000000" stroke="none" 
	d="
M1323.810913,560.353271 
	C1323.293457,559.713440 1322.784302,558.701172 1322.223877,557.351318 
	C1322.721558,558.002747 1323.270386,558.991821 1323.810913,560.353271 
z"/>
<path fill="#3A9BE0" opacity="1.000000" stroke="none" 
	d="
M1319.847900,552.862427 
	C1319.404785,552.597229 1318.875366,552.047607 1318.235352,551.230103 
	C1318.670532,551.500732 1319.216064,552.039307 1319.847900,552.862427 
z"/>
<path fill="#3A9BE0" opacity="1.000000" stroke="none" 
	d="
M1321.785156,556.058594 
	C1321.667969,556.030640 1321.439697,555.789185 1321.174805,555.296936 
	C1321.337036,555.299011 1321.515625,555.565369 1321.785156,556.058594 
z"/>
<path fill="#2CBCD2" opacity="1.000000" stroke="none" 
	d="
M948.640198,832.986572 
	C948.218079,809.646423 948.173462,786.286438 948.557434,762.419800 
	C950.523560,760.176575 952.451782,758.650940 953.524536,756.663574 
	C956.606445,750.954102 959.318237,745.045776 962.222656,739.239258 
	C964.129456,735.427307 966.653625,736.008972 969.379578,738.338013 
	C970.826294,739.573975 972.300171,740.778137 973.761719,741.996704 
	C973.824585,762.018738 973.887451,782.040833 973.870483,802.523682 
	C970.791626,801.254150 967.792664,799.523865 964.436279,797.587341 
	C964.331238,797.775024 963.790527,798.708313 963.280640,799.658203 
	C961.026123,803.858521 958.358398,807.900085 956.648804,812.312378 
	C954.909485,816.801392 953.848389,821.609924 953.009949,826.370117 
	C952.500549,829.262146 953.545959,832.663269 948.640198,832.986572 
z"/>
<path fill="#29CBBE" opacity="1.000000" stroke="none" 
	d="
M1075.625244,199.913330 
	C1069.633667,200.192215 1063.295410,200.250000 1056.504272,200.214783 
	C1062.460327,199.978592 1068.869507,199.835403 1075.625244,199.913330 
z"/>
<path fill="#4192E3" opacity="1.000000" stroke="none" 
	d="
M1325.091064,631.669189 
	C1324.812622,626.978821 1324.751953,621.935486 1324.787354,616.431580 
	C1325.025269,621.086121 1325.167114,626.201172 1325.091064,631.669189 
z"/>
<path fill="#4192E3" opacity="1.000000" stroke="none" 
	d="
M1325.019043,609.840027 
	C1324.823120,609.569214 1324.763428,609.109375 1324.790039,608.309875 
	C1324.969238,608.530457 1325.062256,609.090759 1325.019043,609.840027 
z"/>
<path fill="#2CBCD2" opacity="1.000000" stroke="none" 
	d="
M1316.045166,264.872803 
	C1316.008057,264.992493 1315.721924,264.642853 1315.697510,264.418427 
	C1315.937012,264.295471 1316.073364,264.481842 1316.045166,264.872803 
z"/>
<path fill="#2CBCD2" opacity="1.000000" stroke="none" 
	d="
M1315.753418,264.108398 
	C1315.622437,264.080109 1315.394531,263.823975 1315.159058,263.302246 
	C1315.348877,263.300629 1315.517212,263.581909 1315.753418,264.108398 
z"/>
<path fill="#448BDF" opacity="1.000000" stroke="none" 
	d="
M1133.951782,874.552612 
	C1150.681396,874.153992 1167.369995,874.098328 1184.522095,874.110657 
	C1182.538574,877.802368 1180.305664,881.595825 1177.595947,885.010925 
	C1173.258789,890.477112 1168.307007,895.475891 1164.220825,901.111511 
	C1162.380737,903.649292 1161.594849,907.175720 1161.042603,910.376404 
	C1159.885864,917.079834 1156.870605,919.974060 1150.019165,920.028870 
	C1144.689575,920.071472 1139.359375,920.048523 1133.574463,920.059875 
	C1123.756836,920.065063 1114.394165,920.065063 1104.399902,920.065063 
	C1105.989868,911.823853 1108.829590,905.534607 1113.618530,900.030640 
	C1116.101562,897.176758 1118.014404,893.831665 1120.445923,890.927124 
	C1124.110352,886.549805 1128.027588,882.385132 1131.780151,878.080261 
	C1132.612671,877.125305 1133.206909,875.962585 1133.951782,874.552612 
z"/>
<path fill="#3FD79D" opacity="1.000000" stroke="none" 
	d="
M634.151062,849.124756 
	C634.308533,849.113708 634.596313,849.289185 634.888489,849.724548 
	C634.669983,849.777344 634.466125,849.552979 634.151062,849.124756 
z"/>
<path fill="#3FD79D" opacity="1.000000" stroke="none" 
	d="
M631.101685,846.330017 
	C631.282410,846.200989 631.532349,846.347595 631.791809,846.823242 
	C631.646667,846.867065 631.436523,846.684814 631.101685,846.330017 
z"/>
<path fill="#4187DD" opacity="1.000000" stroke="none" 
	d="
M1064.698364,617.809509 
	C1073.948853,626.901733 1083.364990,635.833374 1092.391479,645.142883 
	C1098.399292,651.339050 1098.305298,660.595520 1092.239014,666.822815 
	C1078.186157,681.248291 1063.985840,695.533447 1049.661865,709.689819 
	C1043.480469,715.798828 1034.082397,715.336853 1028.190186,709.139404 
	C1022.389587,703.038086 1022.661865,694.562988 1028.958130,688.174438 
	C1038.188354,678.809082 1047.477051,669.501587 1056.727295,660.156006 
	C1057.994263,658.876099 1059.183716,657.519592 1060.723511,655.859558 
	C1057.743042,652.691406 1054.926147,649.697021 1052.177612,646.107300 
	C1054.565430,642.191406 1056.427246,638.374634 1059.336182,635.693848 
	C1062.090698,633.155396 1063.201538,631.511230 1061.171631,627.866211 
	C1058.427124,622.938110 1059.946777,619.473083 1064.698364,617.809509 
z"/>
<path fill="#28C7BB" opacity="1.000000" stroke="none" 
	d="
M975.349243,500.332520 
	C981.102234,512.000244 990.414124,517.332825 1003.451904,516.588440 
	C1009.720947,516.230530 1016.027954,516.539551 1022.398438,516.876770 
	C1020.492737,517.773132 1018.506409,518.339294 1016.553162,518.896057 
	C1017.711670,524.130981 1017.570862,523.920349 1013.380737,526.721863 
	C1011.455078,528.009399 1009.583191,530.086914 1008.828674,532.211670 
	C1008.114014,534.224060 1015.570740,540.980103 1017.981750,540.990417 
	C1026.780151,541.028015 1035.580078,540.937683 1044.376465,541.081177 
	C1046.245850,541.111694 1048.102417,541.923767 1049.964966,542.375793 
	C1035.203613,542.488708 1020.383545,543.483154 1005.694641,542.506104 
	C984.149841,541.072937 971.828308,555.188293 973.568481,574.450317 
	C967.211609,572.176208 957.386353,576.472412 955.720886,583.220581 
	C954.562378,587.914673 951.755981,590.550293 948.221802,593.016357 
	C948.173401,574.317993 948.125000,555.619568 948.491577,536.403931 
	C949.496582,535.607788 950.309509,535.488647 950.641968,535.025024 
	C953.782715,530.644775 956.721069,526.114197 959.980286,521.826477 
	C961.392151,519.969116 963.162842,517.861572 965.218994,517.132324 
	C968.837646,515.848877 969.844910,513.724792 970.161865,510.150696 
	C970.362671,507.885468 972.098022,505.735535 973.237488,503.582764 
	C973.839539,502.445404 974.638977,501.412567 975.349243,500.332520 
M1001.330994,535.209595 
	C1000.118042,535.509155 998.905090,535.808716 997.692139,536.108276 
	C997.977844,536.693420 998.263550,537.278564 998.549255,537.863708 
	C999.509399,537.155762 1000.469543,536.447815 1001.330994,535.209595 
z"/>
<path fill="#2AC5C9" opacity="1.000000" stroke="none" 
	d="
M1050.426147,542.482788 
	C1048.102417,541.923767 1046.245850,541.111694 1044.376465,541.081177 
	C1035.580078,540.937683 1026.780151,541.028015 1017.981750,540.990417 
	C1015.570740,540.980103 1008.114014,534.224060 1008.828674,532.211670 
	C1009.583191,530.086914 1011.455078,528.009399 1013.380737,526.721863 
	C1017.570862,523.920349 1017.711670,524.130981 1016.553162,518.896057 
	C1018.506409,518.339294 1020.492737,517.773132 1022.797974,516.989502 
	C1041.174072,516.701477 1059.231201,516.611694 1077.288330,516.567322 
	C1088.557495,516.539612 1099.826904,516.580566 1111.520508,517.066284 
	C1109.567017,521.451294 1107.410767,525.520203 1104.742798,529.220093 
	C1102.552856,532.257019 1100.604492,535.630920 1103.122925,538.600647 
	C1104.608154,540.352112 1108.229614,540.530090 1110.961670,540.932678 
	C1115.582886,541.613647 1120.260498,541.911743 1124.914429,542.370728 
	C1100.238770,542.443726 1075.562988,542.516724 1050.426147,542.482788 
z"/>
<path fill="#29C9C5" opacity="1.000000" stroke="none" 
	d="
M948.148560,593.478516 
	C951.755981,590.550293 954.562378,587.914673 955.720886,583.220581 
	C957.386353,576.472412 967.211609,572.176208 973.484802,574.901978 
	C973.849792,604.690430 973.887024,634.377625 973.500366,664.490723 
	C972.449951,664.716614 971.740234,664.644165 971.209534,664.297546 
	C963.584961,659.317261 961.768860,659.626160 956.590271,667.271179 
	C955.401123,669.026611 955.049316,671.410522 953.700867,672.980042 
	C952.264465,674.652100 950.102966,675.701111 948.257996,677.022156 
	C948.197083,649.328308 948.136169,621.634521 948.148560,593.478516 
z"/>
<path fill="#2BBFD1" opacity="1.000000" stroke="none" 
	d="
M948.178955,677.482666 
	C950.102966,675.701111 952.264465,674.652100 953.700867,672.980042 
	C955.049316,671.410522 955.401123,669.026611 956.590271,667.271179 
	C961.768860,659.626160 963.584961,659.317261 971.209534,664.297546 
	C971.740234,664.644165 972.449951,664.716614 973.421021,664.952698 
	C973.819946,690.350342 973.874329,715.711792 973.845215,741.535034 
	C972.300171,740.778137 970.826294,739.573975 969.379578,738.338013 
	C966.653625,736.008972 964.129456,735.427307 962.222656,739.239258 
	C959.318237,745.045776 956.606445,750.954102 953.524536,756.663574 
	C952.451782,758.650940 950.523560,760.176575 948.639771,761.957764 
	C948.228943,733.982605 948.164490,705.962891 948.178955,677.482666 
z"/>
<path fill="#2EB4D8" opacity="1.000000" stroke="none" 
	d="
M1125.379883,542.480347 
	C1120.260498,541.911743 1115.582886,541.613647 1110.961670,540.932678 
	C1108.229614,540.530090 1104.608154,540.352112 1103.122925,538.600647 
	C1100.604492,535.630920 1102.552856,532.257019 1104.742798,529.220093 
	C1107.410767,525.520203 1109.567017,521.451294 1111.980225,517.170044 
	C1127.751343,516.850891 1143.486816,516.946960 1159.222290,516.937622 
	C1166.835938,516.933044 1174.449585,516.730469 1182.640869,516.799194 
	C1183.218384,516.980835 1183.635132,517.015869 1183.635132,517.015869 
	C1183.635132,517.015869 1184.010254,516.815063 1184.010254,516.815063 
	C1185.073120,516.743896 1186.136108,516.672729 1187.588257,516.703735 
	C1187.634399,517.910706 1187.600586,519.695251 1186.899902,520.014160 
	C1180.514648,522.919983 1179.886719,529.137634 1178.480591,534.702454 
	C1177.515381,538.522034 1179.219604,541.005737 1183.738892,541.038330 
	C1188.315308,541.071289 1192.888306,541.553162 1197.718750,542.088013 
	C1180.732422,542.450439 1163.490479,542.583313 1146.248169,542.665894 
	C1139.447388,542.698425 1132.646240,542.618652 1125.379883,542.480347 
z"/>
<path fill="#4E7ADF" opacity="1.000000" stroke="none" 
	d="
M1157.998535,737.718567 
	C1145.030640,737.791382 1132.061279,738.011414 1119.095337,737.882996 
	C1111.010620,737.802979 1104.428589,730.934875 1104.434204,723.170288 
	C1104.440186,714.912048 1110.822510,708.102539 1119.178711,708.036743 
	C1137.138794,707.895325 1155.100830,708.021667 1173.484253,708.459717 
	C1172.281372,711.588623 1170.564575,714.246338 1169.061401,717.019897 
	C1167.929321,719.108826 1167.278564,721.472656 1166.048950,723.492065 
	C1163.212036,728.151367 1157.824585,731.348633 1157.998535,737.718567 
z"/>
<path fill="#576DDB" opacity="1.000000" stroke="none" 
	d="
M1158.460693,737.799316 
	C1157.824585,731.348633 1163.212036,728.151367 1166.048950,723.492065 
	C1167.278564,721.472656 1167.929321,719.108826 1169.061401,717.019897 
	C1170.564575,714.246338 1172.281372,711.588623 1173.947266,708.532043 
	C1180.475586,708.120300 1186.966064,707.903320 1193.449829,708.032837 
	C1202.089966,708.205322 1208.384399,714.659241 1208.299927,722.941589 
	C1208.214722,731.295898 1202.001465,737.699524 1193.377930,737.834961 
	C1181.895386,738.015381 1170.408081,737.879822 1158.460693,737.799316 
z"/>
<path fill="#3D98E1" opacity="1.000000" stroke="none" 
	d="
M1064.464355,617.536011 
	C1059.946777,619.473083 1058.427124,622.938110 1061.171631,627.866211 
	C1063.201538,631.511230 1062.090698,633.155396 1059.336182,635.693848 
	C1056.427246,638.374634 1054.565430,642.191406 1052.032471,645.801636 
	C1043.864624,638.290771 1035.769409,630.627502 1028.004639,622.642883 
	C1022.528625,617.011902 1022.806763,608.388733 1028.140991,602.757629 
	C1033.728638,596.859009 1042.558105,596.200867 1048.841187,601.733459 
	C1053.187744,605.561035 1056.946411,610.054260 1060.993408,614.225342 
	C1062.022583,615.286133 1063.148804,616.252686 1064.464355,617.536011 
z"/>
<path fill="#56E074" opacity="1.000000" stroke="none" 
	d="
M713.264465,349.030060 
	C718.324585,353.997101 723.626160,358.745087 728.382141,363.988007 
	C734.012146,370.194336 733.572937,380.253845 727.613464,386.281067 
	C710.986267,403.097534 694.298645,419.855042 677.537292,436.537811 
	C670.978149,443.066162 660.369141,442.955353 654.156677,436.579376 
	C647.839539,430.095947 647.966980,420.132202 654.731812,413.246552 
	C666.519226,401.248749 678.386475,389.327301 690.371765,377.527740 
	C693.054260,374.886932 693.042053,373.324432 690.101013,370.917969 
	C686.768616,368.191254 683.945129,364.842773 681.171753,361.432037 
	C685.570312,359.305206 690.137329,358.129456 693.725525,355.577515 
	C699.698547,351.329437 705.683044,348.056824 713.264465,349.030060 
z"/>
<path fill="#4FE081" opacity="1.000000" stroke="none" 
	d="
M801.038025,468.102020 
	C786.398438,468.171448 771.754028,468.493164 757.120972,468.217316 
	C748.092834,468.047119 741.693542,460.694550 741.881409,451.796326 
	C742.076904,442.540833 748.643188,435.885071 758.174500,435.836761 
	C782.143311,435.715302 806.113220,435.798615 830.183350,436.085876 
	C820.572388,436.723602 810.860840,437.075226 801.149231,437.426849 
	C801.715271,438.961395 802.348328,439.466064 803.069397,439.733551 
	C810.111450,442.345917 810.565491,444.833984 805.173950,449.981628 
	C803.677246,451.410645 801.988220,453.320435 801.707397,455.206177 
	C801.014832,459.856995 800.456055,464.251251 795.120728,466.261475 
	C797.093140,466.875000 799.065613,467.488495 801.038025,468.102020 
z"/>
<path fill="#5DE56E" opacity="1.000000" stroke="none" 
	d="
M713.095215,348.725281 
	C705.683044,348.056824 699.698547,351.329437 693.725525,355.577515 
	C690.137329,358.129456 685.570312,359.305206 681.007202,361.129150 
	C671.761169,352.353394 662.832886,343.662201 654.179626,334.705200 
	C647.606384,327.901245 647.990723,317.702271 654.669617,311.506226 
	C661.109924,305.531555 671.067139,306.017914 677.544922,312.588531 
	C689.329285,324.541748 701.131348,336.477478 713.095215,348.725281 
z"/>
<path fill="#46DA92" opacity="1.000000" stroke="none" 
	d="
M801.463928,468.193726 
	C799.065613,467.488495 797.093140,466.875000 795.120728,466.261475 
	C800.456055,464.251251 801.014832,459.856995 801.707397,455.206177 
	C801.988220,453.320435 803.677246,451.410645 805.173950,449.981628 
	C810.565491,444.833984 810.111450,442.345917 803.069397,439.733551 
	C802.348328,439.466064 801.715271,438.961395 801.149231,437.426849 
	C810.860840,437.075226 820.572388,436.723602 830.645630,436.171753 
	C835.826172,435.914764 840.647339,435.737305 845.463440,435.826813 
	C854.871826,436.001648 861.958252,443.204895 861.875854,452.337708 
	C861.796936,461.083160 854.648987,468.152283 845.376892,468.267975 
	C833.901001,468.411194 822.421631,468.275482 810.297424,468.032684 
	C809.093140,467.892731 808.535095,467.980408 807.977112,468.068054 
	C805.947998,468.140533 803.918945,468.213013 801.463928,468.193726 
z"/>
<path fill="#2FCBB3" opacity="1.000000" stroke="none" 
	d="
M948.162415,431.483032 
	C957.900391,428.318939 961.505127,420.112396 965.304932,412.136871 
	C967.343506,407.857880 970.171631,409.259918 973.442505,410.896240 
	C973.832947,427.029297 973.893250,443.056793 973.495239,459.553680 
	C968.850647,463.509033 964.629700,466.955261 960.524414,470.534119 
	C960.042053,470.954620 960.145447,472.099243 960.061523,472.916809 
	C959.028076,482.984192 958.097778,483.794800 948.242676,483.156891 
	C948.189697,466.085754 948.136719,449.014618 948.162415,431.483032 
z"/>
<path fill="#29CBBE" opacity="1.000000" stroke="none" 
	d="
M948.167236,483.570801 
	C958.097778,483.794800 959.028076,482.984192 960.061523,472.916809 
	C960.145447,472.099243 960.042053,470.954620 960.524414,470.534119 
	C964.629700,466.955261 968.850647,463.509033 973.415955,460.017090 
	C973.610718,469.754669 973.426392,479.498230 972.757202,489.786285 
	C971.841736,491.552795 971.411133,492.774841 970.809875,494.297363 
	C969.717957,498.389069 972.470215,497.751678 974.590820,497.875732 
	C974.828430,498.522125 975.065979,499.168518 975.326416,500.073730 
	C974.638977,501.412567 973.839539,502.445404 973.237488,503.582764 
	C972.098022,505.735535 970.362671,507.885468 970.161865,510.150696 
	C969.844910,513.724792 968.837646,515.848877 965.218994,517.132324 
	C963.162842,517.861572 961.392151,519.969116 959.980286,521.826477 
	C956.721069,526.114197 953.782715,530.644775 950.641968,535.025024 
	C950.309509,535.488647 949.496582,535.607788 948.573486,535.941406 
	C948.190796,518.658936 948.141235,501.321808 948.167236,483.570801 
z"/>
<path fill="#4FE081" opacity="1.000000" stroke="none" 
	d="
M808.314636,468.157898 
	C808.535095,467.980408 809.093140,467.892731 809.838684,467.937653 
	C809.568237,468.129425 809.110168,468.188568 808.314636,468.157898 
z"/>
<path fill="#2FCBB3" opacity="1.000000" stroke="none" 
	d="
M1072.153442,283.932617 
	C1073.236694,284.628265 1074.484741,285.158356 1075.376221,286.046539 
	C1081.030396,291.680084 1086.686523,297.315826 1092.185303,303.099884 
	C1098.271606,309.501709 1098.418823,318.800476 1092.226318,325.144226 
	C1078.171631,339.542053 1063.982666,353.811310 1049.686035,367.969086 
	C1043.784302,373.813538 1034.298828,373.503052 1028.530151,367.734985 
	C1022.618286,361.823761 1022.467407,352.889191 1028.501221,346.685242 
	C1037.775879,337.149048 1047.218750,327.775482 1056.661499,318.404846 
	C1057.941162,317.134979 1059.633789,316.281342 1061.446289,315.018127 
	C1058.115356,311.512848 1055.734863,309.007843 1053.353760,305.879883 
	C1054.777954,299.475952 1056.802856,294.310730 1062.237305,290.694824 
	C1064.829834,288.969849 1067.219727,285.720978 1064.808228,281.627380 
	C1064.466309,281.046906 1066.206055,279.240204 1066.982300,278.001038 
	C1067.568726,278.514282 1068.155273,279.027527 1068.901733,280.158173 
	C1070.092285,281.827911 1071.122925,282.880249 1072.153442,283.932617 
z"/>
<path fill="#2BBFD1" opacity="1.000000" stroke="none" 
	d="
M1159.038940,366.270386 
	C1170.678101,366.213531 1182.319946,365.981995 1193.955444,366.159790 
	C1202.045654,366.283386 1208.132568,372.655304 1208.301880,380.516296 
	C1208.479248,388.747620 1202.659058,395.314850 1194.402466,395.841980 
	C1189.928955,396.127655 1185.423950,395.923370 1180.252441,395.556458 
	C1177.853882,394.782898 1176.143066,394.097382 1174.416992,394.056458 
	C1168.291138,393.911316 1162.066772,394.616699 1156.067627,393.730011 
	C1152.718750,393.235016 1148.807373,390.907196 1146.839966,388.183990 
	C1144.565186,385.035645 1148.735840,383.299042 1150.785889,381.329559 
	C1154.690430,377.578369 1154.751343,374.779907 1151.143677,370.733887 
	C1150.665039,370.197174 1150.372803,369.494385 1150.066895,368.988556 
	C1153.288208,368.012634 1156.163574,367.141510 1159.038940,366.270386 
z"/>
<path fill="#29C9C5" opacity="1.000000" stroke="none" 
	d="
M1158.572998,366.186890 
	C1156.163574,367.141510 1153.288208,368.012634 1150.066895,368.988556 
	C1150.372803,369.494385 1150.665039,370.197174 1151.143677,370.733887 
	C1154.751343,374.779907 1154.690430,377.578369 1150.785889,381.329559 
	C1148.735840,383.299042 1144.565186,385.035645 1146.839966,388.183990 
	C1148.807373,390.907196 1152.718750,393.235016 1156.067627,393.730011 
	C1162.066772,394.616699 1168.291138,393.911316 1174.416992,394.056458 
	C1176.143066,394.097382 1177.853882,394.782898 1179.791504,395.477722 
	C1159.701416,395.843842 1139.390747,396.022003 1119.081787,395.909943 
	C1110.673950,395.863556 1104.375366,389.004242 1104.440918,380.683319 
	C1104.504150,372.656677 1110.787964,366.210999 1119.144531,366.109436 
	C1132.130005,365.951508 1145.119263,366.090332 1158.572998,366.186890 
z"/>
<path fill="#30CFAA" opacity="1.000000" stroke="none" 
	d="
M1066.850952,277.694824 
	C1066.206055,279.240204 1064.466309,281.046906 1064.808228,281.627380 
	C1067.219727,285.720978 1064.829834,288.969849 1062.237305,290.694824 
	C1056.802856,294.310730 1054.777954,299.475952 1053.192627,305.584717 
	C1044.548828,297.483093 1035.850342,289.255859 1027.656494,280.553497 
	C1022.140564,274.695190 1023.058960,265.185516 1028.933472,259.850861 
	C1034.625000,254.682358 1044.209717,254.816376 1049.865967,260.347687 
	C1055.577148,265.932648 1061.109131,271.700745 1066.850952,277.694824 
z"/>
<path fill="#28C7BB" opacity="1.000000" stroke="none" 
	d="
M974.582886,497.506531 
	C972.470215,497.751678 969.717957,498.389069 971.169678,494.290649 
	C972.179138,493.969147 972.658203,493.954895 973.137207,493.940613 
	C973.616455,495.006195 974.095703,496.071777 974.582886,497.506531 
z"/>
<path fill="#30CFAA" opacity="1.000000" stroke="none" 
	d="
M1072.080444,283.615417 
	C1071.122925,282.880249 1070.092285,281.827911 1069.020264,280.429413 
	C1069.988281,281.154938 1070.997803,282.226624 1072.080444,283.615417 
z"/>
<path fill="#2FCBB3" opacity="1.000000" stroke="none" 
	d="
M973.096924,493.546753 
	C972.658203,493.954895 972.179138,493.969147 971.340332,493.990143 
	C971.411133,492.774841 971.841736,491.552795 972.559448,490.165253 
	C972.916565,491.050781 972.986572,492.101837 973.096924,493.546753 
z"/>
<path fill="#34AADF" opacity="1.000000" stroke="none" 
	d="
M1183.752441,516.741089 
	C1184.010254,516.815063 1183.635132,517.015869 1183.635132,517.015869 
	C1183.635132,517.015869 1183.218384,516.980835 1183.099121,516.899658 
	C1183.151245,516.768005 1183.322876,516.717590 1183.752441,516.741089 
z"/>
<path fill="#2AC5C9" opacity="1.000000" stroke="none" 
	d="
M1001.380310,535.474731 
	C1000.469543,536.447815 999.509399,537.155762 998.549255,537.863708 
	C998.263550,537.278564 997.977844,536.693420 997.692139,536.108276 
	C998.905090,535.808716 1000.118042,535.509155 1001.380310,535.474731 
z"/>
</svg>